<svg xmlns="http://www.w3.org/2000/svg" width="905.49" height="880" viewBox="0 0 905.49 880" xmlns:xlink="http://www.w3.org/1999/xlink" role="img" artist="Katerina Limpitsouni" source="https://undraw.co/"><g transform="translate(-455.137 -100)"><g transform="translate(873.113 852.73)"><path d="M57.766,3.46,30.694,50.1l27.44,12.9L85.317,20.642Z" transform="translate(-5.658 -3.46)" fill="#e8989b"/><path d="M6.18,61.9a10.9,10.9,0,0,1,1.46-8.75C9.515,50.59,12.895,49,17.69,48.4c.714-.729,9.593-9.717,12.784-9.984.288-.638,2.273-4.807,5.594-5.809a5.508,5.508,0,0,1,4.806.955l.07.047-.016.085c-.022.113-2.041,11.134,3.793,17.146,3.346,3.446,8.609,4.614,15.648,3.467.387-.2,5.62-4.39,9.075-7.187l.137-.118L88.829,94.7l15.55,22.756a7.854,7.854,0,0,1-8.393,12L82.107,125.99a39.835,39.835,0,0,1-15.848-8.077L12.8,73.058A19.334,19.334,0,0,1,6.19,61.9Z" transform="translate(-5.831 -3.258)" fill="#090814"/></g><path d="M268.5,567.55l9.244,53.133,29.313-7.752L300.655,563Z" transform="translate(891.411 329.973)" fill="#e8989b"/><path d="M272.8,646.744A10.9,10.9,0,0,1,268.3,639.1c-.208-3.165,1.358-6.562,4.649-10.094.079-1.017,1.1-13.61,3.376-15.865-.191-.674-1.35-5.143.551-8.046a5.511,5.511,0,0,1,4.29-2.362l.085-.01.043.076c.055.1,5.594,9.841,13.927,10.7,4.778.489,9.561-2,14.215-7.4.167-.4,1.484-6.976,2.332-11.339l.035-.174,45.4,24.163,26.539,7.436a7.856,7.856,0,0,1,1.286,14.589l-12.864,6.261a39.833,39.833,0,0,1-17.332,4H285.053a19.333,19.333,0,0,1-12.249-4.294Z" transform="translate(885.159 328.968)" fill="#090814"/><path d="M18.831,107.306,12.992,77.382a45.527,45.527,0,1,1,52.7,8.965v20.959Z" transform="translate(970.166 124.148)" fill="#ed9da0"/><path d="M750.617,507.587a25.169,25.169,0,0,0,18.963-46.251l-53.424-60.609-45.186,9.762,63.553,62.249a25.033,25.033,0,0,0,16.094,34.849Z" transform="translate(481.299 47.284)" fill="#ed9da0"/><path d="M0,383.842,24.083,259.41S101.1,3.586,125.86.125c9.328-1.3,20.808,7.7,31.491,19.429l.185-1.023,2.883,4.489C176.768,41.983,190.5,65.768,190.5,65.768c8.951,11.42,17.948,27.261,26.71,45.661l96.836,150.758-36.734,16.866c11.288,38.62,18.22,66.4,18.22,66.4s-88.888,5.565-153.866,40.134c-20.948,11.146-43.124,14.921-63.544,14.924C35.2,400.518,0,383.842,0,383.842Z" transform="translate(915.852 224.205)" fill="#3f3d56"/><circle cx="14.604" cy="14.604" r="14.604" transform="translate(727.739 950.458)" fill="#3f3d56"/><path d="M443.786,584.648s34.52-104.886,37.175-112.188S511.5,477.106,518.8,479.1s5.311,9.294,5.311,9.294L486.936,595.933l11.285,5.311,34.52-108.205c19.915-20.579,5.311-21.907,5.311-21.907s-42.485-14.6-58.418-15.932-9.958,17.924-9.958,17.924l-38.5,102.23Z" transform="translate(309.179 86.336)" fill="#3f3d56"/><path d="M604.433,569.492l-.007-.007a41.4,41.4,0,0,0-19.908-15.261q-.428-.159-1-.359c-18.289-6.393-145.712-40.8-145.712-40.8S412.585,503.772,401.3,529s-78.333,234.334-78.333,234.334S454.1,833.459,492.332,841.093a23.092,23.092,0,0,0,7.216.571,101.747,101.747,0,0,0,19.1-4.561,79.931,79.931,0,0,0,19.4-9.38L612.4,605.339S623.021,580.777,604.433,569.492Z" transform="translate(231.511 126.718)" fill="#5f8b8b"/><path d="M533.664,551.745l-.007-.007a41.4,41.4,0,0,0-19.909-15.261q-.428-.16-1-.358c6.015,10.542,8.3,26.912,8.3,26.912S448.03,780.1,441.391,800.683c-5.058,15.686-15.262,21.017-19.829,22.663a23.094,23.094,0,0,0,7.216.571,101.741,101.741,0,0,0,19.1-4.561,42.5,42.5,0,0,0,4.8-6.725s74.35-222.385,80.988-233.006S533.664,551.745,533.664,551.745Z" transform="translate(302.28 144.464)" fill="#3f3d56"/><circle cx="14.604" cy="14.604" r="14.604" transform="translate(682.93 950.79)" fill="#3f3d56"/><circle cx="14.604" cy="14.604" r="14.604" transform="translate(541.202 889.385)" fill="#3f3d56"/><path d="M487.292,515.532a25.169,25.169,0,0,1-20.6-45.546l51.231-62.474,45.505,8.146-61.3,64.473a25.033,25.033,0,0,1-14.842,35.4Z" transform="translate(325.938 52.153)" fill="#ed9da0"/><path d="M557.422,529.846S634.446,274.022,659.2,270.565s54.507,66.343,54.507,66.343C739.473,443.41,828.868,615.9,828.868,615.9S739.979,621.459,675,656.029s-141.661-1.75-141.661-1.75Z" transform="translate(382.512 -46.233)" opacity="0.1" style="isolation:isolate"/><path d="M447.051,194.769v128.55L431.922,509.533,356.34,650.391l36.073,25.767L495.48,542.171l40.765-133.04,64.02,294.511,48.1-3.435-33.4-408.335L551.57,176.935Z" transform="translate(556.076 212.304)" fill="#2f2e41"/><path d="M688.8,336.417c26.235,27,1.874,55.92,1.874,55.92l29.982,69.418L602.6,494.535l-41.256-189.7,28.108-30.852c56.217-1.928,51.413-3.948,51.413-3.948C650.711,279.953,688.8,336.417,688.8,336.417Z" transform="translate(402.609 -46.524)" fill="#e6e6e6"/><path d="M103.068,379.318c-12.119-4.112-29.641-24.619-32.811-42.692-1.139-6.47-.865-15.477,6.868-21.666,22.221-17.771,62.113-73.109,74.554-145.95a133.641,133.641,0,0,0,1.763-27.96L41.228,288.284,0,271.108,128.132,55.076A46.184,46.184,0,0,1,146.183,9.467l.6-.438a46.174,46.174,0,0,1,64.89,10.154c27.206,37.882,52.365,99.049,17.7,175.338C173.719,317.013,125.289,379.722,105.6,379.713h-.074A7.835,7.835,0,0,1,103.068,379.318Z" transform="translate(812.811 228.068)" fill="#3f3d56"/><path d="M175,710.14c0-.949.477-1.718,1.065-1.718h903.359c.589,0,1.065.769,1.065,1.718s-.477,1.718-1.065,1.718H176.065C175.477,711.858,175,711.089,175,710.14Z" transform="translate(280.137 268.141)" fill="#cbcbcb"/><path d="M704.979,161.8s2.449,18.574,25.122,19.175l45.992,1.23s-38.881-94.619-22.885-83.96,58.985-27.825,58.985-27.825l12.212,17.387s30.046-10.886-3.254-37.53c0,0-39.74-30.718-81.925-12.272S704.979,161.8,704.979,161.8Z" transform="translate(233.641 67.892)" fill="#090814"/></g></svg>