<svg xmlns="http://www.w3.org/2000/svg" width="960" height="824.51" viewBox="0 0 960 824.51" xmlns:xlink="http://www.w3.org/1999/xlink" role="img" artist="Katerina Limpitsouni" source="https://undraw.co/"><g transform="translate(-524.182 -185.041)"><path d="M996.922,438.715a173.387,173.387,0,1,1-10.978-61.056c.378,1.018.747,2.036,1.106,3.064v.01q2.4,6.778,4.228,13.809a174.565,174.565,0,0,1,5.644,44.172Z" transform="translate(389.412 35.227)" fill="#5f8b8b"/><path d="M774.037,304.029a58.566,58.566,0,0,0-51.416-2.1c-7.189,3.129-14.759,8.741-17.157,18.876,9.7-5.724,22.255,3.32,24.751,17.829l-.583.161c-1.318,10.049,1.624,20.99,7.322,27.222a19.145,19.145,0,0,1,9.19-13.629c4.186-2.752,8.817-4.751,12.012-9.481,3.788-5.607,4.75-13.8,6.254-21.279S768.77,306.112,774.037,304.029Z" transform="translate(418.643 52.142)" fill="#090814"/><path d="M746.7,390.982c-2.686,4.034-6.274,6.565-9.494,9.717a21.855,21.855,0,0,0-6.9,12.907c-.407,3.51.223,7.079.136,10.629s-1.27,7.545-3.685,8.427c-3.811,1.377-6.72-5.7-10.638-6.2-3.113-.388-5.916,4.509-5.014,8.757s5.14,6.129,7.574,3.355c2.2,3.695.65,10.4-2.657,11.53-.349,2.327-.7,4.645-1.038,6.972-8.359-5.848-16.806-11.792-23.914-20.355a61.786,61.786,0,0,1-14.081-33.282c-.921-9.843.446-21.1-4.073-28.675-3.617-6.061-9.824-7.4-15.41-7.021-1.018.068-2.046.184-3.064.31a172.645,172.645,0,0,1,12.5-28.608,12.245,12.245,0,0,0,3.132-1.949c5.2-4.412,7.506-13.344,11.724-19.521q.407-.6.844-1.164c4.316-5.634,10.1-8.534,15.681-11.23,12.364-6,25.087-12.083,38.14-11.249l-3.714.359q-6.5,18.212-13.014,36.424-.989,2.793-2,5.6c-2.463,6.9-5,14.255-4.626,21.984.223,4.577,1.813,9.465,4.839,11.036,2.822,1.455,5.906-.33,8.631-2.095,1.154-.737,2.3-1.474,3.452-2.221,4.141-2.667,8.728-5.4,13.1-3.617,4.005,1.629,6.963,7.07,7.525,12.937a25.862,25.862,0,0,1-3.956,16.244Z" transform="translate(393.688 52.099)" fill="#090814"/><path d="M746.733,419.693l-36.281-22.339.205-.529c-7.519,2.864-10.641,16.23-9.4,27.161s5.456,20.7,7.585,31.352a83.219,83.219,0,0,1-3.138,43.667,357.612,357.612,0,0,0,42.01-57.888,30.971,30.971,0,0,0,3.8-8.426,13.4,13.4,0,0,0-.888-9.534,10.615,10.615,0,0,0-3.894-3.465Z" transform="translate(416.282 104.886)" fill="#090814"/><path d="M700.123,326.418a13.373,13.373,0,0,0-.613,9.725,10.78,10.78,0,0,0,6.023,5.578l6.682,3.312c2.223,1.1,4.619,2.215,6.885,1.308,2.733-1.093,4.629-5.379,4.138-9.357-.522-4.233-3.19-7.145-5.658-9.625L707.22,316.948l-1.946,2.384a25.994,25.994,0,0,0-5.15,7.085Z" transform="translate(415.161 62.691)" fill="#090814"/><path d="M906.421,378.708l9.019,2.124c-.524,10.153-5.557,19.55-12.306,22.954-2.812,1.416-5.945,1.939-8.272,4.587-2.1,2.405-3.171,6.148-4.151,9.727l-5.15,18.736c-1.842,6.73-4.209,14.207-9,16.631-4.112,2.085-8.815-.466-11.976-4.742s-5.091-10.027-6.963-15.632c.116,6.109-2.725,12.1-6.75,14.226s-8.941.2-11.637-4.538c-1.939-3.4-2.744-7.894-4.645-11.346s-5.886-5.431-7.962-2.192c-1.367,2.153-1.193,5.45-1.872,8.185a8.888,8.888,0,0,1-7.428,7.147,12.387,12.387,0,0,1-8.893-4.063,40.282,40.282,0,0,1-11.045-22.275,26.574,26.574,0,0,1,.31-12.18c1.193-3.772,4.073-6.681,6.934-5.964,1.881-3.976-1.833-9.251-5.178-8.786s-5.983,4.063-8.737,6.827-6.584,4.771-9.348,2.027a3.792,3.792,0,0,1-3.552,4.018q-.149.009-.3.007a13.749,13.749,0,0,1-5.014-2.657c-6.332-3.947-14.372-1.328-18.871,6.139,2.812-11.967,6.934-25.7,15.574-28.511,3.53-1.154,7.38-.2,10.716-2.2,5.906-3.539,7.1-16.912,2-22.43.65,5.217.524,11.307-2.23,14.876s-8.534,1.241-8.185-4.034a3.534,3.534,0,0,1-6.575,1.4c-1.833-2.793-1.677-7.36-.378-10.7a25.2,25.2,0,0,1,5.654-8.03c4.606-4.936,9.281-9.93,14.614-13.034s11.511-4.15,16.864-1.067c2.822,1.629,5.3,4.344,8.185,5.78a6.065,6.065,0,0,0,8.352-1.956h0q.049-.078.095-.158c2.143-3.763,1.135-9.348,1.93-14.052,1.425-8.311,9.736-12.2,14.343-6.711-3.443-.882-7,3.191-7.428,8.127s2.056,9.921,5.392,11.414c5.605,2.482,11.094-3.763,15.332-9.542q6.633-9.077,13.286-18.144a21.934,21.934,0,0,1,2.376-2.89,7.645,7.645,0,0,1,10.444-.213c4.48,3.656,6.585,11.152,10.26,16.311,5.333,7.5,13.315,9.319,20.743,10.774q8.306,1.615,16.622,3.249a172.2,172.2,0,0,1,9.649,21.306A58.4,58.4,0,0,0,906.421,378.708Z" transform="translate(444.089 55.657)" fill="#090814"/><path d="M879.149,432.5A173.859,173.859,0,0,1,864.7,456.674c-3.491-1.493-7.244,1.173-10.512,3.675-3.414,2.618-7.516,5.169-11.016,2.783-3.578-2.444-4.732-9.28-3.6-14.7a39.17,39.17,0,0,1,6.711-13.809c2.909-4.345,6.022-8.854,10.066-10.541s9.261.7,10.444,6.459l2.87-.1c-1.61-2.211-.766-6.788,1.4-7.593,2.492-.941,4.655,2.482,6.129,5.508C877.85,429.724,878.519,431.1,879.149,432.5Z" transform="translate(489.263 118.548)" fill="#090814"/><path d="M818.552,418.646c-6.17.388-11.057-7.207-14.3-14.68s-6.211-16.017-11.778-19.821c-3.181-2.173-6.808-2.471-10.258-3.525a12.7,12.7,0,0,1-8.711-7.67l-3.914-1.581a58.781,58.781,0,0,0-14.86,10.6,33.211,33.211,0,0,0-8.854,19.358c-.748,7.834,2.013,16.569,7.172,19.512,4.076,2.325,8.822.86,12.95,2.988,5.159,2.66,8.221,10.386,9.381,18.014s.865,15.556,1.695,23.271,3.115,15.743,7.846,19.7c5.92,4.948,14.607.836,17.263-8.17,1.3-4.418,1.258-9.4,2.233-13.988,1.716-8.076,6.346-14.067,10.019-20.692S820.994,426.334,818.552,418.646Z" transform="translate(439.923 91.439)" fill="#090814"/><path d="M753.815,355.014a16.46,16.46,0,0,1,1.607,1.706,5.6,5.6,0,0,1-.1,5.787,5.384,5.384,0,0,0,3.855-1.96,24.773,24.773,0,0,0,2.956-4.164,4.539,4.539,0,0,0,.871-3.632c-.292-.832-.981-1.187-1.464-1.812a12.319,12.319,0,0,1-1.352-3.927,7.083,7.083,0,0,0-5.133-5.41l.309.059a2.933,2.933,0,0,0-1.374,3.124c.187,1.21.965,2.215.888,3.449-.111,1.775-1.885,2.608-1.994,4.383a3.389,3.389,0,0,0,.93,2.4Z" transform="translate(443.692 75.714)" fill="#090814"/><path d="M746.577,330.839l.027-.005a4.944,4.944,0,0,0,.527-.561Z" transform="translate(440.36 69.73)" fill="#5f8b8b"/><path d="M751.155,339a5.38,5.38,0,0,0,1.675-5.334c-.448-2.018-2.035-3.375-3.5-3a3.565,3.565,0,0,1-3.315.976c-.9-.233-1.9-.833-2.682-.151a4.061,4.061,0,0,0-.914,1.784l-.871,2.674a1.688,1.688,0,0,0-.1,1.013.858.858,0,0,0,.658.523l5.227,1.541a4.5,4.5,0,0,0,3.822-.025Z" transform="translate(437.632 69.902)" fill="#090814"/><path d="M837.184,414.329l-2.416-3.956a13.216,13.216,0,0,0-3.184-4,2.821,2.821,0,0,0-3.974.351h0l-.042.051.1.753a17.011,17.011,0,0,1,4.244,8.281c.184,1.348.12,2.742.281,4.1a4.776,4.776,0,0,0,1.492,3.341c1.268.847,2.758-.4,3.66-1.926a6.633,6.633,0,0,0,1.028-4.222A7.407,7.407,0,0,0,837.184,414.329Z" transform="translate(483.141 109.582)" fill="#090814"/><path d="M844.4,417.715a9.129,9.129,0,0,0-.295-3.682,8.082,8.082,0,0,1,1.23-4.582,14.893,14.893,0,0,0,1.917-4.2,3.512,3.512,0,0,0-.092-2.057c-.267-.6-.912-.872-1.283-.4l.793.51a7.219,7.219,0,0,0-3.217.156,3.981,3.981,0,0,0-2.438,2.748,17,17,0,0,1-.639,2.851c-.473.972-1.388,1.3-1.963,2.148a5.137,5.137,0,0,0,.081,4.879,5.7,5.7,0,0,0,3.221,2.533C842.679,418.97,843.953,418.988,844.4,417.715Z" transform="translate(488.565 107.912)" fill="#090814"/><path d="M859.538,419.615a11.065,11.065,0,0,0,1.394,2.559c1.077,1.085,2.541.418,3.848.155a6.653,6.653,0,0,1,6.329,2.539,16.11,16.11,0,0,0-9.265-11.56,27.219,27.219,0,0,0-9.529-1.49l-.554.142C853.172,416.064,857.6,415.972,859.538,419.615Z" transform="translate(495.922 112.801)" fill="#090814"/><path d="M794.492,422.512l.008.018.161-.31Z" transform="translate(465.671 118.3)" fill="#5f8b8b"/><path d="M793.436,429.011a30.312,30.312,0,0,0-1.915,4.207,36.613,36.613,0,0,0-1.388,7.2c-.173,1.387-.227,3.159.642,3.835a1.233,1.233,0,0,0,1.613-.219,6.377,6.377,0,0,0,1.169-1.738,40.038,40.038,0,0,0,3.947-9.367,16.3,16.3,0,0,0-.646-10.5Z" transform="translate(463.314 118.407)" fill="#090814"/><path d="M771.36,316.419a3.886,3.886,0,0,0,4.188.817,13.831,13.831,0,0,0,3.94-2.6,9.27,9.27,0,0,0,2.389-2.606,5.286,5.286,0,0,0,.489-4.026,4.089,4.089,0,0,0-3.117-2.466l-5.8-1.72,1.4-1.261c-1.439-.773-3.032.661-3.932,2.436a13.116,13.116,0,0,0-1.193,3.674A9.43,9.43,0,0,0,771.36,316.419Z" transform="translate(452.461 54.974)" fill="#090814"/><path d="M793.5,306.843a3.2,3.2,0,0,0,4.354.354,4.867,4.867,0,0,0,1.926-3.469c.137-1.521-.615-3.212-1.69-3.344l.246-1.424c-2.07-.374-4.616-.449-5.725,2.065a5.9,5.9,0,0,0,.888,5.818Z" transform="translate(464.466 53.087)" fill="#090814"/><ellipse cx="12.91" cy="17.311" rx="12.91" ry="17.311" transform="translate(1104.366 427.768)" fill="#e6e6e6"/><ellipse cx="11.548" cy="8.034" rx="11.548" ry="8.034" transform="translate(1337.897 664.192) rotate(-14.913)" fill="#e6e6e6"/><ellipse cx="11.548" cy="8.034" rx="11.548" ry="8.034" transform="translate(1262.407 665.59) rotate(-14.913)" fill="#e6e6e6"/><ellipse cx="11.548" cy="8.034" rx="11.548" ry="8.034" transform="translate(1351.308 601.385) rotate(-14.913)" fill="#e6e6e6"/><ellipse cx="5.077" cy="7.299" rx="5.077" ry="7.299" transform="translate(1382.024 573.384) rotate(-7.068)" fill="#e6e6e6"/><ellipse cx="5.077" cy="7.299" rx="5.077" ry="7.299" transform="translate(1387.664 526.001) rotate(-7.068)" fill="#e6e6e6"/><ellipse cx="5.077" cy="7.299" rx="5.077" ry="7.299" transform="translate(1311.567 617.09) rotate(-7.068)" fill="#e6e6e6"/><ellipse cx="5.077" cy="7.299" rx="5.077" ry="7.299" transform="translate(1349.732 630.904) rotate(-7.068)" fill="#e6e6e6"/><ellipse cx="5.077" cy="7.299" rx="5.077" ry="7.299" transform="translate(1303.393 670.03) rotate(-7.068)" fill="#e6e6e6"/><ellipse cx="11.548" cy="8.034" rx="11.548" ry="8.034" transform="translate(962.669 600.799) rotate(-14.913)" fill="#e6e6e6"/><ellipse cx="11.548" cy="8.034" rx="11.548" ry="8.034" transform="translate(887.179 602.197) rotate(-14.913)" fill="#e6e6e6"/><ellipse cx="11.548" cy="8.034" rx="11.548" ry="8.034" transform="translate(976.079 537.992) rotate(-14.913)" fill="#e6e6e6"/><ellipse cx="5.077" cy="7.299" rx="5.077" ry="7.299" transform="translate(1006.796 509.99) rotate(-7.068)" fill="#e6e6e6"/><ellipse cx="5.077" cy="7.299" rx="5.077" ry="7.299" transform="translate(1012.436 462.606) rotate(-7.068)" fill="#e6e6e6"/><ellipse cx="5.077" cy="7.299" rx="5.077" ry="7.299" transform="translate(936.341 553.695) rotate(-7.068)" fill="#e6e6e6"/><ellipse cx="5.077" cy="7.299" rx="5.077" ry="7.299" transform="translate(974.504 567.509) rotate(-7.068)" fill="#e6e6e6"/><ellipse cx="11.548" cy="8.034" rx="11.548" ry="8.034" transform="translate(1421.304 310.529) rotate(-14.913)" fill="#e6e6e6"/><ellipse cx="11.548" cy="8.034" rx="11.548" ry="8.034" transform="translate(1345.814 311.928) rotate(-14.913)" fill="#e6e6e6"/><ellipse cx="11.548" cy="8.034" rx="11.548" ry="8.034" transform="translate(1434.714 247.723) rotate(-14.913)" fill="#e6e6e6"/><ellipse cx="5.077" cy="7.299" rx="5.077" ry="7.299" transform="translate(1465.431 219.724) rotate(-7.068)" fill="#e6e6e6"/><ellipse cx="5.077" cy="7.299" rx="5.077" ry="7.299" transform="translate(1445.014 186.291) rotate(-7.068)" fill="#e6e6e6"/><ellipse cx="5.077" cy="7.299" rx="5.077" ry="7.299" transform="translate(1394.974 263.429) rotate(-7.068)" fill="#e6e6e6"/><ellipse cx="5.077" cy="7.299" rx="5.077" ry="7.299" transform="translate(1433.139 277.243) rotate(-7.068)" fill="#e6e6e6"/><ellipse cx="5.077" cy="7.299" rx="5.077" ry="7.299" transform="translate(1386.797 316.37) rotate(-7.068)" fill="#e6e6e6"/><path d="M603.944,594.172c-12.351,0-20.38-3.069-23.934-9.17-7.008-12.03,4.729-33.14,34.886-62.742l2.533,2.58c-28.012,27.5-40.192,48.217-34.295,58.342,3.732,6.4,14.837,8.7,32.122,6.634,17.159-2.048,39.9-8.154,67.589-18.147,57.005-20.573,128.524-55.276,201.381-97.716s138.321-87.532,184.339-126.971c8.839-7.577,16.86-14.866,23.842-21.663a237.423,237.423,0,0,0,25.284-28.179c10.322-14.015,13.806-24.809,10.075-31.213-6.232-10.7-32.41-9.692-73.718,2.836L1053,265.3c44.318-13.439,70.525-13.842,77.892-1.2,4.577,7.858,1.116,19.693-10.287,35.178a240.968,240.968,0,0,1-25.674,28.625c-7.036,6.851-15.115,14.191-24.012,21.817-46.178,39.578-111.834,84.805-184.872,127.35s-144.769,77.348-201.973,97.993c-27.948,10.086-50.957,16.255-68.389,18.335A99.666,99.666,0,0,1,603.944,594.172Z" transform="translate(351.333 29.922)" fill="#5f8b8b"/><g transform="translate(552.428 427.804)"><path d="M244.258,261.89l-15.079-29.715-17.349,8.8,15.079,29.715a20.418,20.418,0,0,0,1.433,15.726c4.7,9.258,14.725,13.618,22.39,9.728s10.07-14.551,5.37-23.814a20.418,20.418,0,0,0-11.844-10.444Z" transform="translate(-43.329 12.114)" fill="#ed9da0"/><path d="M145.387,133.693l76.177,142.378,29.785-15.936L184.618,114.249" transform="translate(-46.796 5.961)" fill="#d6d6e3"/><path d="M188.393,164.441l20.762,96.431-90.487,3.157s11.855-66.969,7.646-78.544Z" transform="translate(-48.191 8.58)" fill="#ed9da0"/><rect width="21.145" height="27.87" transform="translate(178.635 559.733) rotate(180)" fill="#ed9da0"/><path d="M197.441,549.305a6.916,6.916,0,0,1-2.9-4.86c-.133-2.014.874-4.174,2.994-6.421.051-.647.709-8.658,2.175-10.094-.127-.429-.87-3.272.355-5.119a3.56,3.56,0,0,1,2.763-1.507h.055l.027.048c.036.062,3.6,6.26,8.971,6.805,3.077.312,6.158-1.268,9.158-4.708.108-.254.955-4.439,1.5-7.208l.022-.11,29.245,15.372,17.094,4.73a4.976,4.976,0,0,1,.829,9.281l-8.286,3.983a25.928,25.928,0,0,1-11.16,2.544h-44.95A12.556,12.556,0,0,1,197.441,549.305Z" transform="translate(-44.233 26.93)" fill="#090814"/><rect width="21.145" height="27.87" transform="translate(30.549 551.816) rotate(-163.78)" fill="#ed9da0"/><path d="M53.205,534.033a6.916,6.916,0,0,1-1.429-5.476c.434-1.971,2.005-3.764,4.668-5.326.23-.606,3.1-8.117,4.908-9.084,0-.446.079-3.385,1.775-4.819a3.56,3.56,0,0,1,3.074-.675l.055.01.013.053c.016.07,1.711,7.018,6.713,9.04,2.867,1.159,6.267.5,10.108-1.962.175-.213,2.156-3.995,3.456-6.5l.052-.1,23.786,22.929,15.092,9.318a4.976,4.976,0,0,1-1.8,9.143l-9.069,1.51a25.925,25.925,0,0,1-11.43-.676L60.021,538.859a12.555,12.555,0,0,1-6.813-4.827Z" transform="translate(-51.681 26.531)" fill="#090814"/><path d="M111.817,212.489l90.487,2.1s54.986,158.5,52.884,308.962H179.7l-4.482-174.661L162.109,530.335l-99.471-5.726L111.817,212.49Z" transform="translate(-51.114 11.086)" fill="#090814"/><path d="M195.041,45.947a34.376,34.376,0,1,0-53.36,28.661,85.338,85.338,0,0,1-11.245,19.837l33.878,28.232,6.645-43.918a34.39,34.39,0,0,0,24.082-32.812Z" transform="translate(-47.794 0.604)" fill="#ed9da0"/><path d="M172.1,91.56l-38.934-9.47-24.952,31.951a51.449,51.449,0,0,0-2.611,38.915l20.692,62.077s63.13-1.053,76.809-37.879l3.921-8.17a33.607,33.607,0,0,0-3.163-34.379Z" transform="translate(-49.01 4.283)" fill="#d6d6e3"/><path d="M130.554,287.821l.723-33.314-19.45-.422L111.1,287.4a20.418,20.418,0,0,0-6.153,14.539c-.226,10.384,6.559,18.953,15.153,19.14s15.744-8.081,15.969-18.465A20.418,20.418,0,0,0,130.554,287.821Z" transform="translate(-48.907 13.257)" fill="#ed9da0"/><path d="M103.763,127.677V289.149h33.781l9.983-160.112" transform="translate(-48.969 6.662)" fill="#d6d6e3"/><path d="M142.87,51.635s27.076-8.983,20.4-19.18c0,0,28.738,5.006,29.478,0s0-37.08-38.934-31.889-33.743,37.822-33.743,37.822,2.842,31.543,23.793,38.031c0,0-16.2-31.274-1-24.785Z" transform="translate(-48.13 0)" fill="#090814"/><path d="M136.266,18.267s-7.99-5.774-17.322-4c-3.264.621-6.722,3.012-9.832,5.857A54.469,54.469,0,0,0,95.173,41.039c-8.153,21.372-25.264,74.831,4.672,81.385,37.533,8.217,39.864-71.178,39.864-71.178l-3.442-32.973Z" transform="translate(-50.059 0.727)" fill="#090814"/></g><path d="M434.074,742.161H127.825c-.179,0-.325-.621-.325-1.387s.145-1.387.325-1.387H434.074c.179,0,.325.621.325,1.387S434.253,742.161,434.074,742.161Z" transform="translate(396.682 267.39)" fill="#cbcbcb"/></g></svg>