<svg xmlns="http://www.w3.org/2000/svg" width="686.435" height="800" viewBox="0 0 686.435 800" xmlns:xlink="http://www.w3.org/1999/xlink" role="img" artist="Katerina Limpitsouni" source="https://undraw.co/"><g transform="translate(-601 -140)"><path d="M862.069,790.2c-16.606,0-32.455.334-46.966.939a2.459,2.459,0,0,0,.042-.374c0-5.277-17.292-10.1-45.809-13.777,83.984-4.78,140.28-13.557,140.28-23.594,0-15.147-128.178-27.426-286.294-27.426s-286.294,12.279-286.294,27.426c0,2.825,4.463,5.55,12.741,8.114-49.325,1.756-84.771,6.6-84.771,12.3,0,7.181,56.265,13,125.67,13,22.218,0,43.084-.6,61.194-1.644-4.372,1.783-6.719,3.661-6.719,5.6,0,11.552,82.827,20.917,185,20.917,42.451,0,81.554-1.618,112.773-4.336C759.64,812.5,931.475,790.2,862.069,790.2Z" transform="translate(336 128.317)" fill="#f2f2f2"/><path d="M361.3,722.818c7.583,28.03,33.554,45.389,33.554,45.389s13.678-28.086,6.1-56.115S367.4,666.7,367.4,666.7,353.721,694.788,361.3,722.818Z" transform="translate(400.547 125.097)" fill="#3f3d56"/><path d="M376.9,713.543c20.807,20.254,23.348,51.39,23.348,51.39s-31.193-1.7-52-21.958-23.348-51.39-23.348-51.39S356.1,693.289,376.9,713.543Z" transform="translate(396.09 128.348)" fill="#5f8b8b"/><path d="M602.983,184.087s2.388,2.736-1.7,8.031-.788,16.784,6.985,17.077,11.542,3.548,9.668,7.837-4.126,14.479,4.339,12.929,11.141,1.821,9.642,4.411,3.775-5.151,3.775-5.151,4.717,7.028,10.507,2.108,8.092-49.513-3.712-50.269S602.983,184.087,602.983,184.087Z" transform="translate(344.908 57.111)" fill="#2f2e41"/><path d="M390.5,277.377l3.012,18.828h13.554l-4.518-21.517Z" transform="translate(615.452 175.888)" fill="#ed9da0"/><path d="M669.67,377.83s14.222,13.037,10.666,14.222-16.592,15.407-18.962,16.592c-2.12,1.06-24.888,8.3-21.333,0s11.852-13.037,11.852-13.037l2.37-14.222Z" transform="translate(351.235 82.832)" fill="#f2f2f2"/><path d="M669.67,377.83s14.222,13.037,10.666,14.222-16.592,15.407-18.962,16.592c-2.12,1.06-24.888,8.3-21.333,0s11.852-13.037,11.852-13.037l2.37-14.222Z" transform="translate(351.235 82.832)" opacity="0.051"/><path d="M404.779,264.887l3.009,18.829h13.538L416.814,262.2Z" transform="translate(619.088 174.257)" fill="#ed9da0"/><path d="M625.047,325.493l17.626-58.283s-29.587-26.9-9.414-34.967,25.553,32.277,25.553,32.277l-6.724,69.934h-26.9Z" transform="translate(348.244 63.671)" fill="#ed9da0"/><path d="M664.923,276.725s-34.759,44.582-29.483,51.206,14.69,46.971,14.69,46.971-1.345,16.139,4.035,16.139,18.828-2.69,18.828-6.724-12.1-55.14-12.1-55.14l34.967-45.726Z" transform="translate(349.53 69.622)" fill="#5f8b8b"/><path d="M665.951,281.28l34.967-18.828s24.208,12.1,17.483,22.863-37.657,39-37.657,39,9.414,45.726,8.069,47.071-16.138,6.724-20.173,5.379-25.553-53.8-20.173-56.485,22.863-30.932,22.863-30.932Z" transform="translate(351.192 67.757)" fill="#5f8b8b"/><path d="M582.49,716.106S606.7,730.9,609.387,730.9s39,9.414,22.863,16.139-78-2.69-76.658-6.724,0-28.243,2.69-28.243S582.49,716.106,582.49,716.106Z" transform="translate(339.167 126.502)" fill="#2f2e41"/><path d="M606.279,732.758s24.208,14.794,26.9,14.794,39,9.414,22.863,16.138-78-2.69-76.658-6.724,0-28.242,2.69-28.242S606.279,732.758,606.279,732.758Z" transform="translate(342.275 128.677)" fill="#2f2e41"/><path d="M582.808,481.989s3.893,20.173,10.38,34.967-1.3,84.727-5.19,95.486-41.52,138.522-29.843,139.867,35.033,0,35.033,0l37.628-122.384-6.488-164.075Z" transform="translate(341.946 94.332)" fill="#d6d6e3"/><path d="M582.808,481.989s3.893,20.173,10.38,34.967-1.3,84.727-5.19,95.486-41.52,138.522-29.843,139.867,35.033,0,35.033,0l37.628-122.384-6.488-164.075Z" transform="translate(341.946 94.332)" opacity="0.05"/><path d="M589.3,483.832s5.38,36.312,17.483,44.381,8.069,16.139,8.069,16.139l-5.379,71.279S562.73,750.374,578.868,766.512s29.263,4.915,35.987,3.57,8.069-38.792,8.069-38.792,13.449-56.485,18.828-64.554,28.466-47.6,28.242-53.8,18.828-141.212,6.724-149.281-89.689,16.654-89.689,16.654Z" transform="translate(341.768 93.834)" fill="#d6d6e3"/><path d="M32.07,62.7c-.237.005-.477.008-.715.008A31.325,31.325,0,1,1,60.168,43.743c5.681,8.764,13.341,18.963,18.214,18.963,8.552,0-34.2,32.781-34.2,32.781S37.233,75.344,32.07,62.7Z" transform="translate(874.846 330.208)" fill="#ed9da0"/><path d="M42.46,63.535c-.357-2.285-4.639-11.046-7.882-17.449a24.171,24.171,0,1,1,13.285-16.71l14,9.626s-16.582,24.87-19.1,24.869C42.6,63.87,42.5,63.763,42.46,63.535Z" transform="translate(948.553 227.998)" fill="#ed9da0"/><path d="M43.2,178.868c12.1-13.449-13.449-34.967-29.588-64.554S.167,48.415.167,44.38,10.927,30.931,9.581,26.9,43.2,10.758,43.2,10.758A91.512,91.512,0,0,1,56.954,4.1C62.889,1.71,71.385,0,83.55,0h17.483L94.609,35.336C96.107,38,97,40.222,97,41.691c0,8.069,27.865,70.917,29.353,87.16s25.889,76.544-3.7,65.785-84.89,10.716-84.89,10.716S31.1,192.316,43.2,178.868Z" transform="translate(887.867 375.936)" fill="#5f8b8b"/><path d="M624.579,206.546" transform="translate(348.183 60.453)" fill="none" stroke="#2f2e41" stroke-miterlimit="10" stroke-width="1"/><path d="M21.938,58.5c-3.466,1.26-13.452,4.707-18.949,4.707-6.725,0,0-21.518,0-28.239s14.794-12.1,14.794-12.1l.177,1.155L40.647,0l26.9,12.1S92.628,67.244,94.206,71.28,54.094,94.141,50.062,94.141C46.994,94.141,29.944,70.06,21.938,58.5Z" transform="translate(965.739 258.93)" fill="#f2f2f2"/><path d="M4.781,31.6C-.213,30.356-.57,27.367.48,24.521c.082-.209.172-.414.266-.615V0H11.579l3.98,18.155h1.328s10.759,0,14.716,5.382S16.887,31.6,16.887,31.6s-.6,1.2-4.185,1.195A33.583,33.583,0,0,1,4.781,31.6Z" transform="translate(972.014 315.416)" fill="#ed9da0"/><path d="M682.7,368.314s13.635,12.5,10.226,13.634-15.907,14.771-18.179,15.907c-2.033,1.016-23.86,7.953-20.452,0s11.362-12.5,11.362-12.5l2.272-13.634Z" transform="translate(358.433 82.261)" fill="#f2f2f2"/><path d="M631.49,314.812S669.714,304.1,671.059,304.1s20.173-10.759,18.828-14.794l-5.379-33.622S662.99,211.3,677.783,211.3s22.863,34.967,22.863,34.967,32.277,60.52,14.794,73.968-80.693,35.962-84.727,31.927S631.49,314.812,631.49,314.812Z" transform="translate(348.774 61.075)" fill="#ed9da0"/><path d="M666.012,229.675l9.078,8.748-11.768,11.425s-10.092-3.946-15.142,5.416,9.762,8.033,15.142,8.033,33.377-17.483,33.5-22.863-17.361-24.208-21.4-25.553S666.012,229.675,666.012,229.675Z" transform="translate(351.132 61.532)" fill="#ed9da0"/><path d="M674.069,187.659a104.44,104.44,0,0,1-11.83-.73c-3.084-7.452-7.011-13.7-11.26-16.036-3.015-2.7-7.666-4.659-11.315-6.209-8.961-3.807-23.878-1.432-24.75,2.9-17.633,8.425-13.177,23.222-13.177,23.222,2.74,5.791,8.886,3.225,14.1.6,1.332,4.2,4.477,7.761,8.98,7.931,8.611.324,12.787,3.931,10.711,8.682s-4.571,16.039,4.807,14.323,12.341,2.017,10.681,4.886,4.182-5.706,4.182-5.706,5.226,7.785,11.64,2.335a4.868,4.868,0,0,0,1.336-2.289c2.983,1.284,5.345,1.771,6.686,1.171,7.682-3.437,2.911-11.509,2.911-11.509s10.256-1.573,6.951-1.313-5.4-4.023.2-11.744S679.251,187.835,674.069,187.659Z" transform="translate(345.133 54.735)" fill="#2f2e41"/><path d="M2.017,0A2.017,2.017,0,0,1,4.035,2.017v8.069a2.017,2.017,0,1,1-4.035,0V2.017A2.017,2.017,0,0,1,2.017,0Z" transform="matrix(0.949, 0.316, -0.316, 0.949, 963.345, 235.067)" fill="#5f8b8b"/><path d="M420.022,374.941c-52.323.241-94.912,1.014-94.912,1.014s50.623-67.056,94.722-42.212,94.709,31.039,94.756,41.339S472.345,374.7,420.022,374.941Z" transform="translate(309.057 76.351)" fill="#f2f2f2"/><path d="M753.022,140.941c-52.323.241-94.912,1.014-94.912,1.014S708.734,74.9,752.832,99.743s94.709,31.039,94.756,41.339S805.345,140.7,753.022,140.941Z" transform="translate(352.564 45.778)" fill="#f2f2f2"/><path d="M829.873,391.941c52.323.241,94.912,1.014,94.912,1.014s-50.623-67.056-94.722-42.212-94.709,31.039-94.756,41.339S777.55,391.7,829.873,391.941Z" transform="translate(362.65 78.572)" fill="#f2f2f2"/><path d="M29.746,44.851a13.8,13.8,0,0,1,1.646-5.124,4.3,4.3,0,0,1,4.659-2.05c2.733.854,3.649,5.078,6.506,5.217,1.926.093,8.449-10.195,9.675-10.466,6.631-2.1,13.479-5.963,15.684-12.563a7.516,7.516,0,0,0,.357-4.208c-1.01-4.177-6.212-5.435-10.172-6.941S50.337,4.632,46.454,2.675,38.069-.663,33.8.331a65.871,65.871,0,0,0-6.382,2.376c-6.429,2.236-14.3,1.2-19.287,5.839a19.925,19.925,0,0,0-4.659,8.137c-3.478,9.659-5.683,21.119.078,29.6,3.556,5.233,10.17,17.4,17,18.039C28.5,64.987,28.488,51.59,29.746,44.851Z" transform="matrix(0.891, -0.454, 0.454, 0.891, 854.247, 343.435)" fill="#090814"/></g></svg>