<?xml version='1.0' encoding='utf-8'?>
<svg xmlns="http://www.w3.org/2000/svg" width="1068px" height="764px" version="1.1" viewBox="-174 332 1068 764"> <g> <g fill="#b2d8d0"> <path d="m-190.08 316.56 1100.2 0.00146v601.22 180.93l-1100.2 0.0015v-181z"/> </g> <g fill="#bce2ad"> <path d="m910.07 866.24q-97.073 9e-4 -194.15 9e-4 -453.01 0-906.01 7e-4l0.00191 51.467v181l1100.2-0.0015v-180.93-51.538z"/> </g> <g fill-opacity=".16471"> <path d="m753.65 972.29-3.5419 3.7276q-5.5957 2.5034-15.981 4.784-2.1992 1.2795-41.934 6.3406-35.141 3.893-89.442 6.8948-54.676 2.9994-117.98 4.4138-31.653 0.70716-65.464 1.0181-86.415 0.4306-106.29 0.0412-70.713-0.79244-128.84-2.9414-29.064-1.0745-54.982-2.4881-14.925-0.49484-70.674-5.004-94.656-9.3014-78.617-19.332 7.05-4.9945 34.903-9.2144 13.927-2.1098 33.054-4.0261 6.6214-1.101 68.468-5.2692 102.78-6.1538 249.33-6.4155 89.2 0.48587 103.76 1.0249 32.534 0.61779 62.334 1.6039 59.598 1.9721 108.26 5.4173 48.657 3.445 76.51 7.6648 13.927 2.1099 22.652 4.4135 7.6134 1.0308 14.476 7.3466"/> </g> <g fill="#fefefe"> <path d="m398.47 933.93 3.2178 3.594 3.9537 5.377 0.92932 1.0852c-0.62854 5.0176-2.1219 9.1699-4.2493 13.741l-1.4288-0.28465c-2.5785 1.0154-9.0033 3.5454-11.555 3.0996l-0.30627 0.3921-0.71447-0.38136-6.4302-8.9658 0.63928-0.9614c2.1005-4.1418 3.2983-10.701 5.0281-13.408z"/> </g> <g fill="#cbcbca"> <path d="m401.69 937.52 3.9537 5.377 0.92932 1.0852c-0.62854 5.0176-2.1219 9.1699-4.2493 13.741l-1.4288-0.28465c-2.5785 1.0154-9.0033 3.5454-11.555 3.0996l-0.25793-0.8755c7.2306-6.699 10.841-12.2 12.608-22.143z"/> </g> <g> <path d="m405.65 942.9 0.92932 1.0852c-0.62854 5.0176-2.1219 9.1699-4.2493 13.741l-1.4288-0.28465c2.7772-4.8508 3.6582-9.1753 4.7488-14.542z"/> </g> <g fill="#2a3a41"> <path d="m381.89 951.58 0.63928-0.9614c2.7075 3.3789 4.1793 5.3987 6.5537 9.041l0.25793 0.8755-0.30627 0.3921-0.71447-0.38136z"/> </g> <g fill="#0a1519"> <path d="m398.62 919.97c2.1596 1.0259 3.1157 1.3052 5.345 1.9446 3.8839 3.0029 7.1824 12.382 6.8116 17.077-1.1764 1.3162-3.3413 3.583-4.2008 4.9905l-0.92932-1.0852-3.9537-5.377-3.2178-3.594-0.65-1.2676c0.90245-2.1648 0.9508-9.6587 0.2202-12.039z"/> </g> <g fill="#cbcbca"> <path d="m410.78 938.99c1.4236 4.5447-0.98305 13.371-2.6376 17.808-1.2947 2.2724-2.9438 5.6242-4.8401 7.2038-0.77357-0.69314-0.57484-0.39771-0.90248-1.3484-0.15576-1.5415-0.08069-3.3574-0.06995-4.9314 2.1273-4.5716 3.6207-8.7238 4.2493-13.741 0.8595-1.4075 3.0244-3.6743 4.2008-4.9905z"/> </g> <g fill="#2a3a41"> <path d="m613.51 963.93c11.657-4.6682 11.646-6.8867 20.612-13.097l0.3976-0.27417c5.909 6.7578 7.2681 6.9621 16.056 6.5l0.42445-0.11817c8.3372 5.9092 14.794 16.25 23.991 2.2024 2.5731 3.2395 3.0244 5.6355 3.8678 9.675 1.1067 7.8753 3.3629 16.755-8.1868 16.438-17.716-0.4893-41.718 8.1435-58.618 0.1716-2.9546-1.3914-0.63926-4.679-0.40832-6.2368l-0.73584 0.01073c-4.4212 0.02687-17.674 0.05907-17.088-6.6933 3.1317-5.012 13.231-5.7534 19.118-8.3211z"/> </g> <g> <path d="m613.51 963.93c11.657-4.6682 11.646-6.8867 20.612-13.097l0.3976-0.27417c5.909 6.7578 7.2681 6.9621 16.056 6.5-7.2466 11.034-27.048 17.942-38.93 22.132l-0.73584 0.01073c-4.4212 0.02687-17.674 0.05907-17.088-6.6933 3.1317-5.012 13.231-5.7534 19.118-8.3211z"/> </g> <g fill="#2a3a41"> <path d="m102.71 949.96c6.4329 5.5923 12.99 11.023 21.137 13.935l0.58765 0.25246c5.872 2.4604 16.406 3.6689 19.196 8.6919 0.19776 5.3611-7.7312 6.1399-11.884 6.344-1.7298 0.29028-3.2602 0.4353-4.9959 0.60715-0.61621 2.095 0.82349 0.376 1.5116 3.5938-3.1302 9.4704-41.046 3.5239-48.856 2.5625-17.515-2.149-22.462 2.8684-20.171-17.131 1.0077-4.5122 1.5132-6.6448 4.2303-10.351 7.634 15.831 15.595 4.2705 24.281-1.1604l0.45709 0.25245c7.0307 0.37061 11.318-0.98855 14.506-7.596z"/> </g> <g> <path d="m102.71 949.96c6.4329 5.5923 12.99 11.023 21.137 13.935l0.58765 0.25246c5.872 2.4604 16.406 3.6689 19.196 8.6919 0.19776 5.3611-7.7312 6.1399-11.884 6.344-13.119-0.32225-36.228-10.652-43.543-21.627 7.0307 0.37061 11.318-0.98855 14.506-7.596z"/> </g> <g fill="#fefefe"> <path d="m374.29 927.86 1.0475-0.18237c3.7926 3.0188 7.6711 5.7102 11.593 8.5356l0.62842 1.0046c-1.7297 2.7078-2.9276 9.2666-5.0281 13.408l-0.63928 0.9614 6.4302 8.9658 0.71447 0.38136c-0.55859 3.2661-4.7379 7.9773-6.9673 10.647-5.2645 0.0967-9.6748 0.15576-14.923-0.13965l-2.4924-3.6048c-1.6653-2.5246-4.1794-4.9905-3.2179-7.8645l-0.50488-0.63914c1.7405-3.0298 3.9429-5.8125 6.0487-8.6111-1.7996-4.6682-2.8848-8.3482-4.2653-13.161l0.20947-1.1711c3.1694-2.8096 7.8538-5.9898 11.367-8.5308z"/> </g> <g fill="#0a1519"> <path d="m374.29 927.86 1.0475-0.18237c3.7926 3.0188 7.6711 5.7102 11.593 8.5356l0.62842 1.0046c-1.7297 2.7078-2.9276 9.2666-5.0281 13.408l-0.63928 0.9614c-4.5392-0.02147-9.4169 0.03224-13.924-0.11253-1.1872 1.5415-5.603 7.6655-6.5324 8.498l-0.50488-0.63914c1.7405-3.0298 3.9429-5.8125 6.0487-8.6111-1.7996-4.6682-2.8848-8.3482-4.2653-13.161l0.20947-1.1711c3.1694-2.8096 7.8538-5.9898 11.367-8.5308z"/> </g> <g fill="#cbcbca"> <path d="m388.32 960.55 0.71447 0.38136c-0.55859 3.2661-4.7379 7.9773-6.9673 10.647-5.2645 0.0967-9.6748 0.15576-14.923-0.13965l-2.4924-3.6048c7.9557-0.82176 16.776-3.062 23.668-7.2842z"/> </g> <g fill="#0a1519"> <path d="m348.7 958.02c5.1276 0.27366 8.9056 4.2329 12.224 1.3052l0.50488 0.63914c-0.96154 2.874 1.5526 5.3399 3.2179 7.8645l2.4924 3.6048 0.63391 1.3642c-3.0566 0.90236-3.6207 1.1443-6.3603 2.772-5.6888-1.7996-10.879-6.3711-14.566-10.932 0.21387-2.1057 0.40186-4.2168 0.56519-6.3281z"/> <path d="m400.9 957.44 1.4288 0.28465c-0.01074 1.574-0.08581 3.3899 0.06995 4.9314-0.15052 2.5302-0.19885 3.0083-2.0682 4.9529-2.7235 2.8364-8.0686 6.9727-11.99 7.4724-1.7082-0.65014-3.4056-1.3269-5.0925-2.0305l-1.1764-1.4719c2.2294-2.6699 6.4087-7.3811 6.9673-10.647l0.30627-0.3921c2.5516 0.4458 8.9764-2.0842 11.555-3.0996z"/> </g> <g fill="#cbcbca"> <path d="m367.14 971.44c5.2484 0.29541 9.6587 0.23635 14.923 0.13965l1.1764 1.4719c1.6869 0.70364 3.3843 1.3804 5.0925 2.0305-7.15 4.1795-19.419 3.4649-26.919 0.49416 2.7396-1.6277 3.3037-1.8696 6.3603-2.772z"/> </g> <g fill="#2a3a41"> <path d="m367.14 971.44c5.2484 0.29541 9.6587 0.23635 14.923 0.13965l1.1764 1.4719c-5.157-0.01633-10.314-0.102-15.466-0.2473z"/> </g> <g fill="#fefefe"> <path d="m654.75 574.67c1.4075 0.2212 1.6546 0.1758 2.7612 1.1243l2.5516 3.3833c25.237 23.588 22.734 30.384 29.465 62.78 0.3706 1.2754 0.854 2.802 1.1495 4.0698 0.5586 2.1067 1.1227 2.6182 0.3223 4.1777l-1.2892 0.5596 0.65003 2.1789-3.9592 1.9624c-7.5851 4.0293-15.138 7.9488-22.487 12.408 1.2141 2.3066 5.6514 10.33 5.9575 12.05 1.4343 8.1184 1.284 15.2 2.8418 23.602 1.0905 5.886 6.2474 20.864 6.3871 24.762 1.9286 6.6545 4.0021 13.515 5.0173 20.381l-1.2086 0.7124c-5.1462 0.61596-12.946 2.6868-18.581 3.5196-13.258 1.9604-45.425 4.2868-57.914 0.2959 1.3752-21.364 0.72524-43.625 0.94004-65.056 0.22024-21.505-2.6377-44.205 5.1194-64.847 1.531-4.0857 8.0418-21.266 11.055-23.252l1.2088-1.8989c1.9338-1.394 3.9321-3.114 5.9628-4.5984 4.088-3.9624 19.634-15.43 24.05-18.314z"/> </g> <g fill="#cbcbca"> <path d="m679.1 727.73c-12.533-14.969-31.812-79.295-34.67-99.724 2.557 7.6465 7.0694 19.753 10.362 27.1 0.51565 1.5364 0.69825 2.1355 1.4664 3.5434 0.822 2.0161 0.7574 3.0029 2.3207 3.6829l1.864-0.9082c1.5526 2.2448 2.2241 3.4524 3.4702 5.8923 1.2141 2.3069 5.6514 10.33 5.9575 12.05 1.4343 8.1187 1.284 15.2 2.8418 23.602 1.0905 5.8862 6.2474 20.865 6.3871 24.762z"/> </g> <g fill="#2e6d52"> <path d="m689.52 641.96c0.3706 1.2754 0.854 2.802 1.1495 4.0698 0.5586 2.1067 1.1227 2.6182 0.3223 4.1777l-1.2892 0.5596 0.65003 2.1789-3.9592 1.9624c-7.5851 4.0293-15.138 7.9488-22.487 12.408-1.2461-2.4399-1.9176-3.6475-3.4702-5.8926l-1.864 0.9085c-1.5633-0.6802-1.4987-1.667-2.3207-3.6831-0.7682-1.4077-0.9508-2.0068-1.4664-3.5432 9.3202-4.448 24.539-9.4444 34.735-13.146z"/> </g> <g fill="#ac623d"> <path d="m681.55 653.73c2.9382-1.3264 4.9905-2.418 8.1599-2.958l0.65003 2.1789-3.9592 1.9624c-7.5851 4.0293-15.138 7.9488-22.487 12.408-1.2461-2.4399-1.9176-3.6475-3.4702-5.8923 1.3376-1.5848 16.911-6.1306 20.784-7.8379z"/> </g> <g fill="#d43e3b"> <path d="m656.25 658.65c4.6897-2.3176 15.793-6.0444 21.01-7.9392 1.3323 0.9285 2.7128 1.8428 3.9591 2.8762-3.8732 1.7073-19.446 6.253-20.784 7.8377l-1.864 0.9082c-1.5633-0.67996-1.4987-1.6668-2.3207-3.6829z"/> </g> <g fill="#b94834"> <path d="m690.67 646.03c0.5586 2.1067 1.1227 2.6182 0.3223 4.1777l-1.2892 0.5596c-3.1694 0.54-5.2217 1.6316-8.1599 2.958l-0.3224-0.1387c-1.2463-1.0334-2.6268-1.9477-3.9591-2.8762 4.4532-1.6104 8.9227-3.1711 13.408-4.6804z"/> </g> <g fill="#2e6d52"> <path d="m654.75 574.67c1.4075 0.2212 1.6546 0.1758 2.7612 1.1243l2.5516 3.3833c-6.2582 4.0857-25.86 18.849-30.974 19.693-2.4014 0.44703-3.1266 0.53443-5.56 0.61011l1.2088-1.8987c1.9338-1.3941 3.9321-3.1143 5.9628-4.5984 4.088-3.9624 19.634-15.43 24.05-18.314z"/> </g> <g fill="#b94834"> <path d="m654.75 574.67c1.4075 0.2212 1.6546 0.1758 2.7612 1.1243-2.9439 3.5342-13.124 9.9817-17.378 12.915-4.475 0.60133-5.3345 4.2978-8.8745 4.886l-0.55857-0.61105c4.088-3.9624 19.634-15.43 24.05-18.314z"/> </g> <g fill="#ad2924"> <path d="m630.7 592.99 0.55857 0.61105c3.5401-0.58815 4.3996-4.2846 8.8745-4.886-2.3959 1.8794-10.674 7.8315-11.045 10.162-2.4014 0.44726-3.1266 0.53466-5.56 0.61034l1.2088-1.8987c1.9338-1.3941 3.9321-3.1143 5.9628-4.5984z"/> </g> <g fill="#335e98"> <path d="m88.159 570.8c5.8237 3.8838 9.9499 6.9444 15.286 11.445 2.5232 2.1274 9.5126 8.4006 11.931 9.8252 2.8713 1.8528 4.5182 7.0567 5.4626 10.282 5.4933 11.37 9.0518 23.577 10.528 36.118 1.3156 10.702 1.7313 21.495 1.2426 32.267-11.871 0.36086-22.12 0.63256-34.039 0.03196l-0.4292 0.0574-4.76-0.1814c-1.0899-0.19776-1.6374-0.1665-2.3824-0.9707-0.44476-2.2439 0.70746-4.9002 1.445-7.2117 0.47601-2.1467 1.0561-4.3799 1.5788-6.5232 1.271 0.12283 1.2887 0.08645 2.5592-0.13864 1.5331-1.4624 1.5294-3.5374 1.8882-5.7696-4.4066-0.6628-9.5175-1.4035-13.752-2.6562-1.951-0.5728-2.6307-0.9385-4.6564-0.57766-1.691 0.31811-2.7659-0.20191-4.428-0.71338-1.6835-1.5276-2.2332-1.2945-4.2981-1.1253-6.2088 1.8118-9.6624 0.5757-10.446-6.03-0.94122-0.68654-3.3134-0.64577-4.6123-0.7317-0.16602-28.907 4.4474-44.007 26.633-63.881 1.4471-1.9688 2.8771-2.9609 5.2488-3.5159z"/> </g> <g fill="#f4c55c"> <path d="m88.159 570.8c5.8237 3.8838 9.9499 6.9444 15.286 11.445 2.5232 2.1274 9.5126 8.4006 11.931 9.8252 2.8713 1.8528 4.5182 7.0567 5.4626 10.282l-1.6948 1.0896c-1.6766-0.92385-16.562-15.064-20.654-18.279-1.8387 3.5423-6.0767 11.54-6.891 15.172-2.9884 13.332-6.1417 33.541-6.8809 47.041-1.951-0.5728-2.6307-0.9385-4.6564-0.57766-1.691 0.31811-2.7659-0.20191-4.428-0.71338-1.6835-1.5276-2.2332-1.2945-4.2981-1.1253-6.2088 1.8118-9.6624 0.5757-10.446-6.03-0.94122-0.68654-3.3134-0.64577-4.6124-0.7317-0.16602-28.907 4.4474-44.007 26.633-63.881 1.4471-1.969 2.8771-2.9612 5.2488-3.5161z"/> </g> <g fill="#335e98"> <path d="m82.91 574.32 5.2198 3.4717c-12.077 19.85-12.286 26.287-14.91 49.567-0.53235 4.7207-1.8592 13.207-1.8839 17.604-6.2088 1.8118-9.6624 0.5757-10.446-6.03-0.9411-0.68654-3.3134-0.64577-4.6123-0.7317-0.16602-28.907 4.4474-44.007 26.633-63.881z"/> </g> <g fill="#415a67"> <path d="m75.634 646.09c2.5194-16.17 3.5406-54.589 16.618-64.944l1.2463-0.25196c1.1786 1.1104 0.83796 0.4663 1.2134 1.9011-1.6174 3.262-6.2335 11.767-7.1258 14.565-4.845 15.188-4.8309 34.006-7.5239 49.443-1.691 0.31811-2.7659-0.20191-4.428-0.71338z"/> </g> <g fill="#f4c55c"> <path d="m131.37 638.47c1.3156 10.702 1.7313 21.495 1.2426 32.267-11.871 0.36086-22.12 0.63256-34.039 0.03196l-0.4292 0.0574-4.76-0.1814c-1.0899-0.19776-1.6374-0.1665-2.3824-0.9707-0.44476-2.2439 0.70746-4.9002 1.445-7.2117 0.47601-2.1467 1.0562-4.3799 1.5788-6.5232 1.271 0.12283 1.2887 0.08645 2.5592-0.13864 1.5331-1.4624 1.5294-3.5374 1.8882-5.7696 0.74829-3.8386 1.4272-7.6906 2.0381-11.554l3.0425 0.0403c9.272 0.146 18.545 0.1299 27.816-0.04785z"/> </g> <g fill="#c8973d"> <path d="m100.51 638.48 3.0427 0.0403c-1.279 11.344-3.0201 21.1-4.9803 32.251l-0.4292 0.0574-4.7601-0.1814c-1.09-0.19776-1.6373-0.1665-2.3824-0.9707-0.44476-2.2439 0.70746-4.9002 1.445-7.2117 0.47601-2.1467 1.0561-4.3799 1.5788-6.5232 1.271 0.12283 1.2887 0.08645 2.5591-0.13864 1.5332-1.4624 1.5294-3.5374 1.8883-5.7696 0.74829-3.8386 1.4272-7.6906 2.038-11.554z"/> </g> <g fill="#1a4470"> <path d="m100.51 638.48c1.6133-4.9487 2.8971-12.112 3.4214-17.271 0.65643 1.2656-0.37018 14.698-0.37879 17.312z"/> </g> <g fill="#fefefe"> <path d="m610.21 756.1c18.248 3.0317 33.488 4.147 52.124 3.1951 4.3781-0.22386 17.222-2.679 20.166-2.4033-0.40285 5.4434-0.87549 10.819-1.4127 16.255-1.8695 18.937-1.1334 38.924-0.99913 57.945l-10.959 1.2915c-10.067 1.1518-34.203 3.8447-45.07 2.3894-0.70376-0.09351-1.1712-1.937-1.4666-2.761-0.12365-3.5982-3.1642-19.505-3.8946-23.74-3.1318-17.34-5.9575-34.733-8.4876-52.171z"/> <path d="m671.88 864.1c7.9021 17.233 7.9612 34.353 5.4741 52.758-1.1389 8.9068-4.7865 34.998-2.3691 42.287-9.1968 14.048-15.654 3.7068-23.991-2.2024l-0.42445 0.11817c-8.7884 0.46213-10.147 0.25783-16.056-6.5 1.7565-5.7156-1.5472-26.682-2.5088-33.66-1.95-10.83-2.6107-22.498-4.3942-33.419-0.80579-4.9475-1.676-10.325-2.1649-15.272 4.6575-0.19337 7.6443-0.34376 12.28-1.0476 1.821 3.8569 1.445 4.2385 5.7856 4.0774 11.093-1.7029 18.066-2.6699 28.369-7.1394z"/> </g> <g fill="#cbcbca"> <path d="m637.73 867.16c1.821 3.8569 1.445 4.2385 5.7856 4.0774l-3.2285 0.6606-0.38147 0.5855c2.5839 11.716 14.381 75.572 11.093 84.457l-0.42445 0.11817c-8.7884 0.46213-10.147 0.25783-16.056-6.5 1.7565-5.7156-1.5472-26.682-2.5088-33.66-1.95-10.83-2.6107-22.498-4.3942-33.419-0.80579-4.9475-1.676-10.325-2.1649-15.272 4.6575-0.19337 7.6443-0.34376 12.28-1.0476z"/> </g> <g fill="#7e4b34"> <path d="m56.278 638.2c1.2989 0.08593 3.6711 0.04516 4.6123 0.7317 0.78375 6.6057 4.2374 7.8418 10.446 6.03 2.0649-0.1692 2.6146-0.4023 4.2981 1.1253 1.662 0.51147 2.737 1.0315 4.428 0.71338 2.0258-0.36084 2.7054 0.00486 4.6564 0.57766 4.2346 1.2527 9.3455 1.9934 13.752 2.6562-0.35888 2.2322-0.3551 4.3072-1.8882 5.7696-1.2705 0.22509-1.2882 0.26147-2.5592 0.13864-0.5227 2.1433-1.1028 4.3765-1.5788 6.5232-0.73755 2.3116-1.8898 4.9678-1.445 7.2117 0.74506 0.8042 1.2925 0.77294 2.3824 0.9707l4.76 0.1814c-2.3174 9.6313-4.7885 18.502-4.8782 28.511 0.66022 3.3118 3.7453 19.872 5.714 21.448 0.29975 2.2244 0.64362 5.9482 1.1217 7.9519 3.7819 11.603 4.4974 18.753 11.632 29.24 4.2932 6.3103 5.1511 20.533 2.2132 27.471-2.7391 6.4929-17.195-0.33034-20.704-1.4973-1.3962-4.8533-1.2554-10.194-3.3532-16.344 0.19605-6.0127 2.6446-21.764-3.9327-23.915-0.03546-4.0149-2.3072-6.9524-4.5081-10.249-0.85418-2.4446-1.4885-3.6238-2.6838-5.9026-1.5842-3.1677-3.0277-6.1013-4.4694-9.3491-7.4262-19.565-11.589-25.944-11.653-47.373l-4.8337-0.63086c-1.0008-5.498-1.4305-25.907-1.5294-31.99z"/> </g> <g fill="#f4c55c"> <path d="m56.278 638.2c1.2989 0.08593 3.6711 0.04516 4.6123 0.7317 0.78375 6.6057 4.2374 7.8418 10.446 6.03 2.0649-0.1692 2.6146-0.4023 4.2981 1.1253 1.662 0.51147 2.737 1.0315 4.428 0.71338 2.0258-0.36084 2.7054 0.00486 4.6564 0.57766 4.2346 1.2527 9.3455 1.9934 13.752 2.6562-0.35888 2.2322-0.3551 4.3072-1.8882 5.7696-1.2705 0.22509-1.2882 0.26147-2.5592 0.13864-5.3611-1.1975-26.338-4.593-31.055-4.6797-0.28412 5.7749 0.14618 14.471-0.32758 19.558l-4.8337-0.63062c-1.0008-5.4983-1.4305-25.907-1.5294-31.99z"/> </g> <g fill="#5e301d"> <path d="m62.968 651.26c4.7166 0.08666 25.694 3.4824 31.055 4.6797-0.5227 2.1433-1.1028 4.3765-1.5788 6.5232-8.4999-2.9038-20.086-4.8847-28.419-8.7629-0.86866-0.4043-0.7757-1.2241-1.0573-2.4397z"/> </g> <g fill="#1a4470"> <path d="m93.382 670.65 4.76 0.1814c-2.3174 9.6313-4.7885 18.502-4.8782 28.511-1.3918-7.1324-3.5648-14.111-5.5599-21.114 1.3768-4.6333 0.46686-7.3735 5.6781-7.5781z"/> </g> <g fill="#fefefe"> <path d="m350.5 934.23c2.2008-0.376 9.8397 2.498 12.209 3.3305 1.3805 4.813 2.4657 8.4929 4.2653 13.161-2.1058 2.7986-4.3082 5.5813-6.0487 8.6111-3.3187 2.9277-7.0968-1.0315-12.224-1.3052l-1.2881 0.2898c-2.3831-5.2967-3.6368-9.1966-4.7429-14.88l1.3522-0.33838c1.7528-2.6912 4.5188-6.2097 6.4779-8.8689z"/> </g> <g> <path d="m342.67 943.43 1.3522-0.33838c0.68763 4.2224 2.6998 11.109 4.6788 14.929l-1.2881 0.2898c-2.3831-5.2967-3.6368-9.1966-4.7429-14.88z"/> </g> <g fill="#0a1519"> <path d="m345.42 921.97 4.7971-1.6653 0.49742 2.8686c0.03273 1.2678 0.19618 4.1362-0.0354 5.248-0.072 1.9341-0.1301 3.8735-0.17357 5.8074-1.9591 2.6592-4.7251 6.1777-6.4779 8.8689l-1.3522 0.33838-3.7877-3.9485c-1.032-4.2649 2.809-14.585 6.5322-17.518z"/> </g> <g fill="#fefefe"> <path d="m341.45 956.78c-1.4849-4.3674-4.2529-13.027-2.564-17.292l3.7876 3.9485c1.1062 5.6836 2.36 9.5835 4.7429 14.88-0.16333 2.1113-0.35132 4.2224-0.56507 6.3281-2.0343-2.2507-3.7738-5.2644-5.4015-7.8643z"/> </g> <g fill="#335e98"> <path d="m97.576 885.38c3.8076 0.26318 7.6232 0.38672 11.44 0.36545l-0.42713 4.6841c-1.2763 8.3159-2.5554 18.361-4.1273 26.5-0.9212 7.0801-3.7812 26.988-1.7545 33.032-3.1882 6.6074-7.4755 7.9666-14.506 7.596l-0.45721-0.25245c-8.6858 5.4309-16.647 16.991-24.281 1.1604 2.1262-4.1956-1.6545-35.224-2.5688-41.643-1.4735-11.34-1.8582-18.764-1.3591-30.061 6.5372 2.2937 12.681 3.884 19.524 5.0227 1.2108 0.19873 6.5151 0.91309 7.2005 1.2195 5.062 0.16115 7.6066 2.0735 9.3122-3.2822-0.96484-1.1711-2.448-0.91306-4.405-1.1335 7.0098-0.1128 2.376-1.6546 6.4092-3.207z"/> </g> <g fill="#1a4470"> <path d="m97.576 885.38c3.8076 0.26318 7.6232 0.38672 11.44 0.36545l-0.42713 4.6841c-1.2763 8.3159-2.5554 18.361-4.1273 26.5-0.9212 7.0801-3.7812 26.988-1.7545 33.032-3.1882 6.6074-7.4755 7.9666-14.506 7.596l-0.45721-0.25245c-3.6416-7.0212 4.7628-52.398 6.5333-63.093-3.1673-0.0967-5.3918-0.0537-8.465-0.8059l0.44745-0.40285c5.062 0.16115 7.6066 2.0735 9.3122-3.2822-0.96484-1.1711-2.448-0.91306-4.405-1.1335 7.0098-0.1128 2.3759-1.6546 6.4092-3.207z"/> </g> <g fill="#c8973d"> <path d="m97.576 885.38c3.8076 0.26318 7.6232 0.38672 11.44 0.36545l-0.42713 4.6841c-3.4665 0.0862-9.9912 0.5105-13.017-0.709-0.96484-1.1711-2.448-0.91306-4.405-1.1335 7.0098-0.1128 2.376-1.6546 6.4092-3.207z"/> </g> <g fill="#7e4b34"> <path d="m83.588 803.21 4.4178 0.24757c0.1709 2.3804 0.077454 4.9121 1.451 6.8066 1.2452 0.9768 1.3414 0.9524 2.9481 1.218 5.0818 0.4292 25.889 3.3733 28.889 1.2322l3.1952-0.968c-1.3628 8.8603-3.6293 17.271-5.315 26.034-0.88098 4.5801-0.40716 10.642-1.4837 15.272-1.301 5.5977-5.1253 11.055-6.3689 16.578-4.1895-0.31176-7.3719-0.4729-11.597-0.47827l-1.8796 3.5833c-11.912-1.5042-20.978-3.2232-32.408-6.8816 8.4936-22.065 4.2637-26.638 2.043-49.178l-0.44592-5.8286c2.4163 0.0322 8.4232-0.03393 10.527 0.3513l2.3884-0.2756c2.2642-1.8425 2.7466-4.8123 3.6384-7.7134z"/> </g> <g fill="#5e301d"> <path d="m83.588 803.21 4.4178 0.24757c0.1709 2.3804 0.077454 4.9121 1.451 6.8066 1.2452 0.9768 1.3414 0.9524 2.9481 1.218 5.0818 0.4292 25.889 3.3733 28.889 1.2322l3.1952-0.968c-1.3628 8.8603-3.6293 17.271-5.315 26.034-0.88098 4.5801-0.40716 10.642-1.4837 15.272-1.301 5.5977-5.1253 11.055-6.3689 16.578-4.1895-0.31176-7.3719-0.4729-11.597-0.47827 5.6512-11.168 6.5532-15.401 8.0068-27.804 0.75312-6.4236 3.8694-17.255 5.8032-23.487-11.052 0.20584-15.022 0.78028-26.843 0.03589-0.78381-2.7004-1.1824-7.0984-1.5396-10.006-1.4247 2.9907-2.8127 6.4387-4.131 9.5115l-13.54-0.7266-0.44592-5.8286c2.4163 0.0322 8.4232-0.03393 10.527 0.3513l2.3884-0.2756c2.2642-1.8425 2.7466-4.8123 3.6384-7.7134z"/> </g> <g fill="#335e98"> <path d="m63.979 717.53c3.7366 0.4053 6.5541 0.5703 10.314 0.6621 1.4417 3.2481 2.8852 6.1817 4.4694 9.3494 1.1952 2.2788 1.8296 3.458 2.6838 5.9026 2.2009 3.2966 4.4727 6.2341 4.5081 10.249 6.5773 2.1509 4.1288 17.902 3.9327 23.915 2.0978 6.1509 1.957 11.491 3.3532 16.344-0.23315 8.0439-0.18909 19.791-0.83588 27.529-1.6068-0.2656-1.7029-0.2412-2.9481-1.218-1.3735-1.8945-1.2801-4.4263-1.451-6.8066l-4.4178-0.24757c-0.89172 2.9011-1.3741 5.8709-3.6384 7.7134l-2.3884 0.2756c-2.1036-0.38523-8.1105-0.3191-10.527-0.3513-2.3137-0.32275-6.4361-0.38183-8.8937-0.49-0.44263-8.4595 1.1168-19.658 0.022032-27.656-2.9787-21.767-9.6517-38.838 3.1647-59.752 0.90778-1.7947 1.792-3.6013 2.6521-5.4192z"/> </g> <g fill="#415a67"> <path d="m85.955 743.69c6.5773 2.1509 4.1288 17.902 3.9327 23.915 2.0978 6.1509 1.957 11.491 3.3532 16.344-0.23315 8.0439-0.18909 19.791-0.83588 27.529-1.6068-0.2656-1.7029-0.2412-2.9481-1.218-1.3735-1.8945-1.2801-4.4263-1.451-6.8066l-4.4178-0.24757c1.4498-18.512 1.7394-40.77 2.3669-59.516z"/> </g> <g fill="#f4c55c"> <path d="m88.006 803.46c0.87249-11.795 0.74945-23.908 1.8818-35.849 2.0978 6.1509 1.957 11.491 3.3532 16.344-0.23315 8.0439-0.18909 19.791-0.83588 27.529-1.6068-0.2656-1.7029-0.2412-2.9481-1.218-1.3735-1.8945-1.2801-4.4263-1.451-6.8066z"/> <path d="m81.446 733.44c2.2009 3.2966 4.4727 6.2341 4.5081 10.249-0.6275 18.746-0.91705 41.004-2.3669 59.516-0.89172 2.9011-1.3741 5.8709-3.6384 7.7134l-2.3884 0.2756c3.2812-20.746 3.2076-55.439 3.8855-77.754z"/> </g> <g fill="#1a4470"> <path d="m63.979 717.53c3.7366 0.4053 6.5541 0.5703 10.314 0.6621 1.4417 3.2481 2.8852 6.1817 4.4694 9.3494-5.0765-1.8421-13.314-2.7339-17.436-4.5923 0.90778-1.7947 1.792-3.6013 2.6521-5.4192z"/> </g> <g> <path d="m97.45 557.82c-1.6057-1.2382-3.2183-2.1843-4.0284-3.9666 0.08972-0.50122 0.16333-1.0056 0.22077-1.5118 0.29547-2.7948-0.86109-3.7124-2.65-5.8519-0.41089-2.7249 0.25464-2.706 1.3973-5.7379-0.59308-0.9931-1.1979-1.9794-1.8152-2.9583-0.085385-1.2198-0.16058-1.9602 0.5625-2.9963 2.6311-3.7689-0.072025-3.0357 0.27288-7.1249 1.3542-2.7911 2.6359-1.733 3.9478-3.8629-1.1195-7.4815 1.3354-5.3106 4.5823-7.5491 1.5084-1.04 0.29431-6.1712 6.4307-5.7561-0.27185-0.0183 2.9696-3.4206 3.3268-3.7618 2.1777-0.92712 3.2973 0.34375 4.124 0.1521 2.9293-0.67957 2.332-3.6378 6.4119-3.6626 5.5309 3.5514 2.788 0.73865 7.9864-0.73071 1.2742-0.36036 2.839 0.9375 3.6406 1.8447 1.2023 1.3613 3.1769 0.5083 5.6039 0.29344 1.6143 0.5398 2.1622 1.0389 3.1711 2.448 1.3923 1.9441 3.2242 1.1758 5.5954 1.3429 2.651 1.3748 2.5881 4.0944 4.4366 4.4871 2.6806 0.56884 3.3445-0.02295 5.1608 2.3756 0.97498 6.6326 4.8578 3.8097 5.4229 6.658 1.3311 6.7009 5.1511 13.258-3.0647 16.539-5.6985-0.2815-12.443-7.6838-16.499-5.2617-2.6956 6.6067 1.0013 9.7966-9.4116 10.479-1.6148 3.28-2.671 6.6197-6.1224 7.8144-4.4285-1.5934-2.4721-10.451-6.9405-12.869-5.7463-0.0586-7.4197 6.3457-7.3869 11.032 0.001095 1.6454 0.076845 3.2903 0.22614 4.9294l-0.72192 0.1987c-7.3885 2.0654-6.145 4.6284-13.88 3.0073z"/> </g> <g fill="#335e98"> <path d="m98.978 720.79c5.178-0.33766 15.077 1.6484 20.699 2.0952 2.2578 0.17945 8.1438 0.5115 9.981 0.79956l-0.24878 1.6206c1.6589 7.9109 1.942 34.987 1.4864 43.781 0.3067 13.348 0.61133 28.296 0.33947 41.69l-6.7455 0.9717-3.1952 0.968c-2.9996 2.1411-23.807-0.803-28.889-1.2322 0.64679-7.7378 0.60272-19.485 0.83588-27.529 3.5089 1.167 17.965 7.9902 20.704 1.4973 2.9379-6.938 2.08-21.161-2.2132-27.471-7.1345-10.487-7.85-17.637-11.632-29.24-0.47815-2.0037-0.8219-5.7276-1.1216-7.9522z"/> </g> <g fill="#1a4470"> <path d="m121.29 812.71c0.02155-5.0835 2.5012-23.072 3.3553-28.812 1.5514-10.425 3.0663-27.936 5.5444-37.601 0.82245 7.5356-0.13538 15.53 0.7016 22.783 0.3067 13.348 0.61133 28.296 0.33947 41.69l-6.7455 0.9717z"/> <path d="m98.978 720.79c5.178-0.33766 15.077 1.6484 20.699 2.0952 2.2578 0.17945 8.1438 0.5115 9.981 0.79956l-0.24878 1.6206c-0.08326 1.6514 0.13275 3.3354-0.66822 4.4995-5.2323 1.011-22.084-1.0991-28.641-1.063-0.47809-2.0037-0.82184-5.7276-1.1216-7.9522z"/> </g> <g fill="#ce865e"> <path d="m591.76 536.76c3.583-1.5219 13.87-6.6892 16.857-5.5154 1.805 3.3252-0.65004 7.1995 0.94546 9.3848 1.273 1.743 7.4454 4.451 9.186 6.2932 2.6267 2.7788 2.0573 7.8192 4.1632 9.7526 1.6922 0.03005 0.94533 0.28808 2.2722-0.91895 0.43516-3.3774 0.6123-12.664 3.1157-13.646 7.7623-3.041 9.8144 5.6754 8.7239 10.658-0.27918 1.2576-0.58544 2.5071-0.9292 3.748 4.1632 5.6524 6.4517 7.2119 13.258 8.9351 1.1014 2.5915 3.1211 7.5991 5.3935 9.2214-4.4157 2.8836-19.962 14.352-24.05 18.314-2.0306 1.4841-4.0289 3.2043-5.9628 4.5984l1.3429-4.9309c-2.0842-3.7092-3.6906-6.3648-6.0648-9.9156-2.5947 1.5572-5.1838 3.1475-8.1546 3.9063-8.4445 2.1584-12.022-13.906-14.95-15.856-1.9822 0.05885-2.4066 0.1675-4.2546-0.4026-1.547-2.4704 0.9348-13.157 1.5419-16.91l-1.6225-1.4806-0.7949-0.66553c-1.4666-3.494-0.83264-10.902-0.0161-14.571z"/> </g> <g fill="#ac623d"> <path d="m620.01 582.74c0.83266-2.4104 7.338-7.0034 9.0463-9.9299 1.0958-1.8706 1.7781-6.0156 2.8739-6.8267l0.1398 0.93357-0.63405 0.0071-0.08055 0.26417 0.7037 0.53783c-0.4889 7.0559-2.8363 18.582-5.9842 24.929-2.0842-3.7092-3.6906-6.3648-6.0648-9.9156z"/> </g> <g fill="#7e4b34"> <path d="m635.84 557.32c0.3385 1.9483 0.2417 2.9964-0.8219 4.5264-1.7458 1.1418-2.3207 1.0044-4.4425 0.95726l-0.19873-1.3399c3.2554-2.5901 2.2453 0.16164 5.4631-4.144z"/> <path d="m132.28 543.71c10.413-0.68215 6.7159-3.872 9.4116-10.479 4.0558-2.4223 10.8 4.9803 16.499 5.2618l-0.16601 0.7423c-1.9506 9.0092 0.75537 10.094-6.3517 18.276 0.63648 3.6907 2.2095 9.8296 0.79023 13.077-4.1161 2.6816-5.1926-0.92457-7.1281 5.9951l-1.8318 0.9497c-0.78113 2.5268-0.88636 2.3984-3.4971 3.3149-5.5395 8.0977-10.118 7.3306-16.666 0.38577-2.102 2.3074-6.1288 6.478-7.7156 8.9275l-0.24389 1.9094c-2.4185-1.4248-9.4078-7.698-11.931-9.8254-5.3365-4.5005-9.4626-7.561-15.286-11.445 3.5557-3.3811 6.9932-8.6687 9.2908-12.977 7.7355 1.6211 6.4919-0.94187 13.88-3.0073l0.72205-0.1987c-0.14941-1.6391-0.2251-3.2838-0.22614-4.9294-0.032835-4.6864 1.6406-11.091 7.3868-11.032 4.4684 2.4182 2.5119 11.276 6.9406 12.869 3.4514-1.1947 4.5076-4.5344 6.1223-7.8144z"/> </g> <g fill="#5e301d"> <path d="m115.62 590.16c-1.4907-3.2854-2.3288-19.331-2.1837-23.763l1.0222-0.5833-0.05799-0.2041-0.88263-0.0725 0.73816-0.37816-0.6452-0.15478 0.48779-0.34596c0.92292 2.53 1.4418 5.7537 2.6371 7.7634 1.4391 2.419 5.6275 6.3487 6.5998 8.8111-2.102 2.3071-6.1288 6.478-7.7156 8.9275z"/> <path d="m143.5 577.53c-1.7432-0.49147-4.3486-1.0293-5.0513-2.7688 2.05-0.5574 5.0325 0.8596 6.883 1.8191z"/> </g> <g> <path d="m591.76 536.76c-2.4927-1.5574-4.7703-3.9456-5.1892-6.8599-2.8794-20.132 38.662-26.319 50.689-17.662 4.7057 3.3844 13.704 13.546 14.66 19.973 1.3914 11.889-2.831 19.911-2.5679 33.24-6.806-1.7232-9.0944-3.2827-13.258-8.9351 0.34376-1.241 0.65002-2.4905 0.9292-3.748 1.0906-4.9824-0.96154-13.699-8.7239-10.658-2.5034 0.9816-2.6806 10.268-3.1157 13.646-1.3269 1.207-0.58008 0.949-2.2722 0.91895-2.1059-1.9334-1.5365-6.9738-4.1632-9.7526-1.7406-1.8422-7.913-4.5502-9.186-6.2932-1.5955-2.1853 0.8595-6.0596-0.94546-9.3848-2.9868-1.1738-13.274 3.9935-16.857 5.5154z"/> </g> <g fill="#2a3a41"> <path d="m620.77 515.23c2.9008-0.10852 3.4541-0.12512 6.2904 0.52917-9.9434 0.50171-18.291 1.8956-25.935 8.8157-0.99927 1.5284-1.3645 2.0662-2.6323 3.3737l-0.48339-0.17309c3.3628-9.252 14.074-11.902 22.761-12.545z"/> <path d="m625.64 523.64c5.1893-0.32665 11.206-0.18371 15.39 3.2194-4.029-0.07567-6.3442-1.7867-13.231-1.8013-5.243 0.67371-10.76 2.7403-15.729 4.5421 3.8841-3.4506 8.6273-4.8225 13.57-5.9602z"/> <path d="m598.88 516.98 0.8058 0.51035c-3.7497 4.5962-4.7758 5.8731-5.7696 11.801l-0.49414 0.10744-0.51025-0.4175c0.26855-6.0385 1.9444-7.8638 5.9682-12.001z"/> </g> <g fill="#335e98"> <path d="m98.571 670.77c11.919 0.6006 22.168 0.3289 34.039-0.03196-0.21759 16.205-0.74249 32.215 0.5393 48.376 0.13379 1.6868-2.2503 3.5681-3.4922 4.5662-1.8372-0.28806-7.7233-0.62011-9.981-0.79931-5.6217-0.44678-15.521-2.4331-20.699-2.0954-1.9688-1.5752-5.0538-18.136-5.714-21.448 0.089724-10.008 2.5608-18.88 4.8782-28.511z"/> </g> <g fill="#ce865e"> <path d="m686.4 654.91 3.9592-1.9624c5.8875 24.066 11.243 34.216 4.8131 59.482-0.98305 3.8786-2.2401 11.704-3.5078 15.146-2.7881 5.4021 0.65537 7.1206 0.06983 11.154-1.0475 7.2063-2.9654 13.104-3.7604 20.526-2.2024-0.69384-2.5032-0.81567-4.3512-2.1885l-1.1174-0.17136c0.04309-2.8916 0.05921-5.2031 0.40295-8.0705l1.2086-0.71266c-1.0152-6.8657-3.0887-13.726-5.0173-20.381-0.13966-3.8968-5.2966-18.875-6.3871-24.762-1.5578-8.4023-1.4075-15.484-2.8418-23.602-0.30614-1.7202-4.7434-9.7429-5.9575-12.05 7.3489-4.4592 14.902-8.3787 22.487-12.408z"/> </g> <g fill="#d79269"> <path d="m684.11 748.11 0.5158-1.4963c0.63376 1.9932 0.13974 8.7217-1.0099 10.451l-1.1174-0.17136c0.04309-2.8916 0.05921-5.2031 0.40295-8.0705z"/> </g> <g fill="#ce865e"> <path d="m625.45 868.21c-3.583-6.919-9.5726-28.81-8.3049-35.701 1.5793-0.9084 3.5239-0.57054 5.4525-0.4963 0.2954 0.82396 0.7628 2.6675 1.4666 2.761 10.867 1.4553 35.003-1.2376 45.07-2.3894l-0.4834 8.0596c-0.44065 10.874-0.32239 13.429 3.2338 23.657-10.303 4.4695-17.276 5.4365-28.369 7.1394-4.3406 0.1611-3.9646-0.2205-5.7856-4.0774-4.6359 0.70384-7.6227 0.85423-12.28 1.0476z"/> </g> <g fill="#ac623d"> <path d="m625.45 868.21c-3.583-6.919-9.5726-28.81-8.3049-35.701 1.5793-0.9084 3.5239-0.57054 5.4525-0.4963 0.2954 0.82396 0.7628 2.6675 1.4666 2.761 10.867 1.4553 35.003-1.2376 45.07-2.3894l-0.4834 8.0596c-12.855-0.11328-25.689-0.98266-38.441-2.6028 1.9016 12.103 2.2562 17.949 7.5207 29.322-4.6359 0.70384-7.6227 0.85423-12.28 1.0476z"/> </g> <g fill="#415a67"> <path d="m65.437 865.85c11.43 3.6584 20.495 5.3774 32.408 6.8816l-0.67419 3.7654c-0.50391 2.3745-0.070986 2.1919-1.5117 3.5671l0.88525 0.8755-0.90454 3.6262 1.9365 0.81105c-4.0332 1.5525 0.60065 3.0942-6.4091 3.207 1.957 0.22044 3.4401-0.0376 4.405 1.1335-1.7056 5.3557-4.2502 3.4434-9.3122 3.2822-0.68549-0.30639-5.9897-1.0208-7.2005-1.2195-6.8427-1.1387-12.987-2.729-19.524-5.0227l0.79022-4.6306c0.41632-1.4448 0.76386-2.96 1.1254-4.4262 0.28473-1.7083 0.80365-2.8848 1.4101-4.4964 0.55707-2.0574 1.8157-5.2485 2.5764-7.3542z"/> </g> <g fill="#335e98"> <path d="m65.437 865.85c11.43 3.6584 20.495 5.3774 32.408 6.8816l-0.67419 3.7654c-0.50391 2.3745-0.070986 2.1919-1.5117 3.5671-13.298-1.5686-20.017-2.5515-32.798-6.8599 0.55707-2.0574 1.8157-5.2485 2.5764-7.3542z"/> </g> <g fill="#f4c55c"> <path d="m60.325 882.13c11.081 3.8357 19.084 5.2432 30.842 6.457 1.957 0.22044 3.4401-0.0376 4.405 1.1335-1.7056 5.3557-4.2502 3.4434-9.3122 3.2822-0.68537-0.30639-5.9897-1.0208-7.2005-1.2195-6.8427-1.1387-12.987-2.729-19.524-5.0227z"/> <path d="m61.451 877.7c0.28473-1.7083 0.80365-2.8848 1.4101-4.4964 12.781 4.3084 19.501 5.2913 32.798 6.8599l0.88537 0.8755-0.90466 3.6262c-1.2844-0.34374-9.3278-1.2034-11.099-1.4289-8.7164-1.1121-14.879-2.4605-23.09-5.4363z"/> </g> <g fill="#fefefe"> <path d="m360.92 913.48c4.0128-2.0898 9.1859 0.94532 13.064 2.6267l1.3107 0.40306c0.10742 3.8462 0.22034 7.3057 0.04297 11.163l-1.0475 0.18237c-3.5132 2.541-8.1975 5.7212-11.367 8.5308l-0.20947 1.1711c-2.369-0.83254-10.008-3.7065-12.209-3.3305 0.04347-1.9339 0.10157-3.8733 0.17357-5.8074 0.23146-1.1118 0.06813-3.9802 0.0354-5.248l-0.49742-2.8686c3.7727-3.406 5.9816-5.0981 10.359-7.655z"/> </g> <g> <path d="m350.68 928.42c0.49037 2.2241 0.30726 3.304 2.5296 4.5234 2.9734 1.6275 6.4866 2.1594 9.7151 3.4434l-0.20947 1.1711c-2.369-0.83254-10.008-3.7065-12.209-3.3305 0.04347-1.9339 0.10157-3.8733 0.17357-5.8074z"/> <path d="m360.57 912.65 0.34388 0.83273c-3.2184 2.3797-9.251 5.968-10.206 9.6909l-0.49742-2.8686c3.7727-3.406 5.9816-5.0981 10.359-7.655z"/> </g> <g fill="#2a3a41"> <path d="m373.98 916.11 1.3107 0.40306c0.10742 3.8462 0.22034 7.3057 0.04297 11.163l-1.0475 0.18237z"/> </g> <g fill="#fefefe"> <path d="m375.29 916.51c3.0996-1.8103 7.6443-3.0835 11.141-4.1257 4.3083 2.8149 7.5314 5.0979 11.609 8.2351 0.7306 2.3799 0.68225 9.8738-0.2202 12.039l0.65 1.2676-10.916 3.2876-0.62842-1.0046c-3.9215-2.8254-7.8-5.5168-11.593-8.5356 0.17737-3.8572 0.06445-7.3167-0.04297-11.163z"/> </g> <g> <path d="m386.93 936.21c4.0934-1.6221 6.6987-2.3958 10.894-3.5505l0.65 1.2676-10.916 3.2876z"/> </g> <g fill="#ac623d"> <path d="m691.66 727.57c5.141 3.1797 14.23 10.113 15.997 15.802l-0.21487 1.4463c-3.5024 2.206-8.1545-3.6724-11.829-3.9822-1.934 7.4895 13.704 7.5518 13.274 11.948-5.1732 8.3362-12.355 9.5139-20.918 6.4658 0.795-7.4224 2.7129-13.32 3.7604-20.526 0.58554-4.0339-2.8579-5.7524-0.06983-11.154z"/> </g> <g fill="#335e98"> <path d="m57.807 670.19 4.8337 0.63086c0.063843 21.429 4.2266 27.808 11.653 47.372-3.7599-0.09154-6.5774-0.2568-10.314-0.6621-1.5804-1.0002-3.0706-2.3955-4.4974-3.6321 0.086546-14.587-0.47272-29.171-1.675-43.709z"/> </g> <g fill="#c8973d"> <path d="m99.724 869.15c4.225 0.00537 7.4074 0.16651 11.597 0.47827-0.43945 2.4656-0.90033 4.9153-1.22 7.4024l-0.44916 4.3996-0.63592 4.3137c-3.8168 0.02127-7.6324-0.10227-11.44-0.36545l-1.9366-0.81105 0.90466-3.6262-0.88537-0.8755c1.4408-1.3752 1.0078-1.1926 1.5117-3.5671l0.67419-3.7654z"/> </g> <g fill="#1a4470"> <path d="m99.724 869.15c4.225 0.00537 7.4074 0.16651 11.597 0.47827-0.43945 2.4656-0.90033 4.9153-1.22 7.4024-4.1998 0.02148-8.7132-0.30615-12.931-0.53198l0.67419-3.7654z"/> </g> <g fill="#2a3a41"> <path d="m96.544 880.94c3.9854 0.6072 9.0027 0.4675 13.108 0.489l-0.63592 4.3137c-3.8168 0.02127-7.6324-0.10227-11.44-0.36545l-1.9366-0.81105z"/> </g> <g fill="#0a1519"> <path d="m365.15 907.2c3.6851-2.6482 14.853-2.2292 18.947-0.41894 4.3833 7.5693 9.1106 7.3918 14.52 13.188l-0.57483 0.6499c-4.0773-3.1372-7.3003-5.4202-11.609-8.2351-3.4971 1.0422-8.0418 2.3154-11.141 4.1257l-1.3107-0.40306c-3.8785-1.6814-9.0516-4.7165-13.064-2.6267l-0.34388-0.83273c2.5732-1.6707 3.1372-2.8899 4.5769-5.4473z"/> </g> <g fill="#fefefe"> <path d="m384.1 906.78c5.9519 0.34934 13.064 6.2099 17.276 10.073 1.0154 1.3052 2.4873 2.8847 2.7934 4.4209l-0.20422 0.63943c-2.2292-0.63943-3.1854-0.9187-5.345-1.9446-5.4096-5.7964-10.137-5.6189-14.52-13.188z"/> <path d="m348.02 917.03c0.53833-0.54764 1.0862-1.0796 1.6433-1.606 3.3623-3.1587 10.729-8.3533 15.483-8.2246-1.4397 2.5574-2.0036 3.7766-4.5769 5.4473-4.3776 2.5569-6.5864 4.249-10.359 7.655l-4.7971 1.6653-0.21814-0.5264c0.1289-1.4665 1.8168-3.164 2.8246-4.4106z"/> </g> </g> </svg>