<?xml version='1.0' encoding='utf-8'?>
<svg xmlns="http://www.w3.org/2000/svg" width="983px" height="656px" version="1.1" viewBox="39 706 983 656"> <g fill="#74bafd"> <path d="m38.999 705.46c-0.14308 0-0.2803 0.05683-0.38147 0.15802-0.10117 0.1012-0.15801 0.23841-0.15801 0.38145l9.98e-4 656c0 0.298 0.24154 0.5394 0.53948 0.5394l983 1e-3c0.14304 0 0.28025-0.0568 0.38145-0.158 0.10119-0.1012 0.15802-0.2384 0.15802-0.3814l-9.7e-4 -656c0-0.298-0.2415-0.5395-0.5395-0.5395l-983-9.7e-4z"/> </g> <g fill="#033565"> <path d="m38.46 1230.8 1.97e-4 131.17c0 0.298 0.24154 0.5394 0.53948 0.5394l983 1e-3c0.14304 0 0.28025-0.0568 0.38145-0.158 0.10119-0.1012 0.15802-0.2384 0.15802-0.3814l-1.7e-4 -129.25-984.08-1.9224z"/> </g> <g fill="#fff"> <path d="m357.31 888.86-0.45096 6.6213q-3.1841 20.008-18.561 31.992-15.483 11.975-36.448 9.691-20.008-3.1838-31.992-18.56-3.8399-4.9704-6.3236-10.83l-2.0866-6.0237q-1.7184-6.2167-1.732-12.974 0.54097-20.735 14.322-34.493 13.781-13.757 34.517-14.263 20.735 0.5409 34.493 14.322 13.758 13.781 14.263 34.517z"/> </g> <g fill="#fabb3c"> <path d="m788.94 1135.8 13.308-0.0811 13.308-0.081q0.1059 17.339 0.2117 34.679-13.308 0.0813-26.615 0.1626-0.10584-17.34-0.21174-34.679"/> <path d="m875.4 1087.3 34.389 1.7505q-1.94 38.114-3.88 76.228-17.195-0.8752-34.389-1.7503 1.94-38.114 3.8801-76.229"/> <path d="m924.7 1173.4 16.336 0.0781q-0.07013 14.67-0.1402 29.34-8.1682-0.039-16.336-0.078l0.14026-29.34"/> <path d="m966.75 1175.4 10.349-0.0654 10.349-0.0653q0.0874 13.827 0.1748 27.654-10.349 0.0654-20.697 0.1309-0.0874-13.827-0.1748-27.655"/> </g> <g fill="#2464a0"> <path d="m946.43 1193 23.635-0.1493q0.1207 19.104 0.24137 38.208-11.817 0.0747-23.635 0.1496-0.12076-19.104-0.24151-38.209"/> <path d="m793.24 1180.5 28.359-0.0136q0.01172 23.891 0.02335 47.783-14.179 0.0071-28.359 0.0142l-0.02337-47.784"/> </g> <g fill="#fabb3c"> <path d="m705.92 1162.1 28.834-0.0139q0.0076 15.408 0.0151 30.816-14.417 0.0073-28.834 0.0144-0.00751-15.408-0.01502-30.817"/> <path d="m693.5 1119.2 18.31-0.0087q0.0086 17.557 0.01714 35.113-9.1549 0.0047-18.31 0.0094-0.00861-17.557-0.01722-35.114"/> <path d="m645.76 1160.6 14.288-0.0069 14.288-0.0068q0.00836 17.11 0.01672 34.219-14.288 7e-3 -28.576 0.0142-0.00836-17.11-0.0168-34.22"/> <path d="m615.66 1085.3 21.852 0.0097q-0.01396 30.786-0.02794 61.571-10.926-0.0049-21.852-0.0097l0.02802-61.571"/> <path d="m525.24 1141.6 27.417-0.0643q0.03395 14.325 0.0679 28.651-13.708 0.0326-27.417 0.0651-0.03394-14.326-0.0679-28.652"/> <path d="m550.13 1168.3 15.869-0.0375 15.869-0.0374q0.0375 15.869 0.0752 31.738-15.869 0.0378-31.738 0.0755-0.03754-15.869-0.07507-31.738"/> <path d="m487.99 1170.9 17.158-0.0407 17.158-0.0405q0.04066 17.158 0.0813 34.316-17.158 0.0408-34.316 0.0817-0.04066-17.158-0.0813-34.316"/> </g> <g fill="#2464a0"> <path d="m526.96 1189.1 23.645-0.0556q0.04923 20.781 0.0984 41.562-11.822 0.0282-23.645 0.0562-0.04919-20.781-0.09844-41.562"/> </g> <g fill="#fabb3c"> <path d="m459.76 1123.2 13.398 0.1737 13.398 0.1739q-0.18209 14.056-0.36425 28.111-13.398-0.1734-26.797-0.347 0.18214-14.056 0.36427-28.112"/> <path d="m403.37 1174.8 0.64542 0.0084 0.64538 0.0085q0.00137-0.1078 0.00282-0.2154-0.64543-0.0083-1.2908-0.0166-0.0014 0.1075-0.00282 0.2151"/> </g> <g fill="#2464a0"> <path d="m432.88 1188.3 30.978 0.4017q-0.2775 21.416-0.55499 42.832-15.489-0.2005-30.978-0.4011 0.2775-21.416 0.555-42.832"/> </g> <g fill="#fabb3c"> <path d="m403.25 1183.7 15.878 0.2058 15.879 0.2063q-0.1919 14.808-0.38376 29.616-15.879-0.2058-31.757-0.4115 0.19186-14.808 0.38376-29.616"/> <path d="m370.62 1124.7 15.823 0.0868 15.823 0.087q-0.10365 18.887-0.2073 37.775-15.823-0.0867-31.645-0.1733l0.20728-37.775"/> <path d="m360.17 1160.1 30.118 0.1654q-0.09942 18.123-0.19887 36.246-15.059-0.0824-30.118-0.1649 0.09946-18.123 0.19888-36.247"/> <path d="m302.03 1169.1 15.918-0.2115 15.918-0.2114q0.2697 20.285 0.53942 40.57-15.918 0.2114-31.836 0.4232-0.26967-20.285-0.53938-40.57"/> <path d="m272.32 1136.9 29.26-0.3887q0.21372 16.075 0.42743 32.15-14.63 0.1946-29.259 0.3891-0.21371-16.075-0.42749-32.15"/> <path d="m233.97 1171.4 30.442-0.4045q0.2442 18.367 0.4884 36.734-15.221 0.2025-30.442 0.405l-0.48841-36.734"/> <path d="m195.41 1058 9.6114-0.0145 9.6114-0.0144q0.02018 13.329 0.04036 26.659-9.6114 0.0146-19.223 0.0293-0.02019-13.33-0.04039-26.659"/> <path d="m126.71 1177.5 29.411 0.0495q-0.02465 14.705-0.04929 29.411-14.705-0.0245-29.411-0.049 0.02464-14.706 0.049285-29.411"/> <path d="m70.41 1174 13.298 0.0225 13.298 0.0226q-0.028424 16.962-0.056864 33.925-13.298-0.0221-26.596-0.0442l0.056855-33.926"/> </g> <g fill="#2464a0"> <path d="m99.158 1196.5 14.835 0.0251 14.835 0.0252q-0.0305 18.212-0.06102 36.424-14.835-0.0247-29.67-0.0495 0.030514-18.212 0.061034-36.424"/> <path d="m265.83 1185.6 16.365-0.0804 16.365-0.0803q0.1109 22.579 0.22184 45.157-16.365 0.0805-32.729 0.161l-0.22184-45.158"/> <path d="m673.89 1189.7 32.268-1.0935q0.7055 20.817 1.411 41.634-16.134 0.5468-32.268 1.0936-0.70544-20.817-1.4109-41.634"/> </g> <g fill="#1a4873"> <path d="m201.15 1000.6c-2.3748 7.3801-11.472 36.28-14.541 46.254-1.5345 5.0055-2.8863 9.3168-2.996 9.609-0.14617 0.4019 0.32884 0.5113 2.5941 0.5113h2.7767v27.037l-1e-5 27-8.5859 8.9512c-4.713 4.8959-8.5858 9.0243-8.5858 9.1339 0 0.1097 2.046 0.2194 4.5669 0.2194h4.5669v27.219 27.219l-10.23-3e-4 -10.23 3e-4v-6.0287-6.0283h6.0649c4.713 0 6.0283-0.1097 5.8822-0.475-0.10959-0.219-2.0094-4.3842-4.2016-9.2069-2.1922-4.8228-5.3343-11.838-7.0149-15.637l-3.0324-6.8321-25.356 1e-4 -25.319-1e-4v-4.567-4.5669h1.3153 1.2788l-0.10965-1.7539-0.10959-1.7172-7.9648-0.0729-7.9282-0.0731v1.7903 1.8268h1.2787 1.2787v4.5669 4.567l-14.468 0.0731-14.432 0.1096-3.1055 6.7591c-4.3478 9.4626-10.595 23.419-10.888 24.369l-0.25573 0.8404h5.4804 5.5169v28.863 28.863l-10.23-2e-4 -10.23 2e-4v2.192 2.192l971.85 4e-4v-2.1921-2.192l-11.509-1e-4 -11.509 1e-4v-29.558-29.521l1.1326-0.2556c0.6211-0.1098 2.9229-0.2194 5.1151-0.2194h3.9458l-6.2475-8.8415c-3.471-4.8959-9.1706-13.08-12.715-18.195l-6.3937-9.3165-2.3017-0.1095-2.2653-0.1098v-2.2652c0-1.2421 0.1096-3.1056 0.2192-4.1649 0.21916-1.7903 0.2922-1.8999 1.3884-2.0095 1.0595-0.1098 1.1325-0.1829 1.2421-1.8634l0.1096-1.7172h-8.0378-8.0745v1.8634 1.8632l1.2788-0.146 1.2789-0.146v4.3112 4.311l-19.547-2e-4h-19.547v-19.729-19.729h2.5575c1.4248 0 2.5575-0.1097 2.5575-0.2191 0-0.2192-4.9324-7.5266-10.449-15.491-4.4938-6.4305-25.283-35.805-25.721-36.28-0.14612-0.1825-1.2422 1.0596-2.4478 2.7404-1.2057 1.6805-3.9824 5.4803-6.138 8.5127-2.1922 2.996-5.0054 6.9418-6.2842 8.732l-2.3017 3.2884v-3.7266-3.7267l0.87687 0.2189c0.69409 0.1465 0.91327 0.0367 1.096-0.694 0.5114-2.0459 0.3288-2.0826-6.7592-2.0826h-6.5399v1.2788c0 1.1692 0.073 1.2789 1.0961 1.2789l1.096-2e-4v10.267 10.23l-3.7631 5.1881c-5.2978 7.2707-7.1976 10.01-7.1976 10.266 0 0.1094 1.2423 0.2193 2.7402 0.2193h2.7402v45.779c0 25.21 0.10967 48.3 0.25577 51.333l0.2193 5.5534-7.49-1e-4 -7.4897 1e-4 -0.2193-5.5534c-0.14606-3.0326-0.25574-13.555-0.25574-23.383v-17.829l5.4803-1e-4c3.0325 0 5.4805-0.1094 5.4805-0.219s-1.2057-1.5712-2.6671-3.2151c-1.4614-1.6078-5.2978-5.9918-8.4763-9.7185-3.2152-3.7267-8.6955-10.048-12.24-14.066-7.0148-8.038-11.691-13.409-21.191-24.479-3.4709-4.0189-6.5033-7.5263-6.7591-7.7821-0.3653-0.402-1.498 0.7307-6.0648 6.0284-3.1056 3.5805-7.3437 8.4763-9.4628 10.888-2.1191 2.4115-4.3842 5.0421-5.0053 5.8459l-1.2058 1.4613v-3.2152-3.1784h1.2788 1.2788v-1.8268-1.8269h-5.8092c-3.1787 0-6.7957-0.1096-8.038-0.2191l-2.2286-0.2557v1.8632 1.8633l1.3884 0.1095 1.3518 0.1096 0.10973 9.4264 0.073 9.4263-5.2611 6.1014c-2.8864 3.3613-7.3072 8.4762-9.8649 11.399l-4.6034 5.298 5.517 0.1824 5.5168 0.183 0.07312 31.859 0.03643 31.896h-10.851l-10.888-1e-4v-27.585-27.584h4.0189l4.0189 1e-4 -14.578-18.195c-8.0013-9.9742-17.135-21.373-20.314-25.283-3.142-3.9093-7.5628-9.39-9.755-12.167-2.2286-2.7767-4.165-5.0054-4.3113-4.9322-0.18263 0.0731-3.142 3.7265-6.6495 8.1473-8.0743 10.23-11.509 14.542-16.733 20.935l-4.2017 5.1515h-11.216l-11.253 0.0364v-14.578-14.578l4.7497-0.2556 4.7131-0.2925-0.8037-0.9864c-0.4385-0.5479-2.9229-3.4342-5.4804-6.4302-2.594-2.996-5.9189-6.8688-7.4168-8.6225l-2.7036-3.1785v-7.709-7.6726h1.0961c1.0229 0 1.096-0.1096 1.096-1.2788v-1.2789l-6.0285-2e-4h-6.0285v1.279c0 1.1692 0.0732 1.2788 1.0961 1.2788h1.0961v3.1786c0 2.667-0.073 3.1054-0.47496 2.667-0.2923-0.2923-2.7766-3.0689-5.5169-6.1381-2.7767-3.0323-5.1515-5.5533-5.2977-5.5169-0.1094 0-4.6764 5.2248-10.157 11.582-5.4437 6.3571-13.226 15.382-17.245 20.058-4.0555 4.6766-7.3437 8.586-7.3437 8.6958 0 0.1096 1.4614 0.1825 3.2517 0.1825 1.7902 0 3.7632 0.1096 4.3844 0.2192l1.1325 0.2192v45.451 45.451h-7.1244-7.1246v-13.92-13.884l4.7496 0.1098c2.6308 0.0731 4.7497 0 4.7497-0.1463 0-0.146-0.76715-0.7671-1.6806-1.4249-0.9499-0.621-3.7997-2.8131-6.3571-4.8591-2.521-2.0459-6.0651-4.7862-7.7822-6.1745l-3.1786-2.4481v-11.691-11.691h1.2788c1.2786 0 1.2786 0 1.2786-1.6444v-1.6441h-7.1244-7.1245v1.6441c0 1.5713 0.03654 1.6444 1.0961 1.6444h1.0962v7.8916 7.8918l-1.5345-1.2421c-1.498-1.2058-4.494-3.5075-21.008-16.113-3.8729-2.9593-7.1977-5.3708-7.3803-5.3708-0.1827 0-5.663 4.1651-12.203 9.2071-22.543 17.574-30.252 23.493-30.58 23.602-0.21925 0.0732-0.36537-4.1652-0.36537-11.399v-11.545h4.8958c2.7036 0 5.0053-0.1098 5.1149-0.2923 0.07306-0.1465-0.91333-1.4982-2.2286-2.9959-1.2787-1.498-4.4573-5.2977-7.0149-8.4033-5.59-6.8321-5.2977-5.6265-4.9323-19.474l0.25583-9.3897h1.2422c1.2057 0 1.2057-0.0363 1.2057-1.6441v-1.6439h-6.9418-6.9419v1.6439c0 1.571 0.03656 1.6441 1.0596 1.6441 0.98642 0 1.0961 0.1097 1.2788 1.7172 0.2558 2.046 0.14617 10.705-0.1461 10.668-0.10968 0-2.0096-2.2653-4.2747-5.0054-2.2653-2.7401-4.8228-5.8092-5.6631-6.7957l-1.571-1.7538-4.6035 5.2613c-6.1746 7.0147-22.689 26.488-26.927 31.676-2.521 3.1055-3.2882 4.2383-2.9228 4.4573 0.25574 0.1827 2.4114 0.3289 4.7496 0.3289 4.1652 0 4.3112 0.0364 4.4939 0.8039 0.10959 0.475 0.14615 5.2612 0.10959 10.705l-0.10959 9.8649-14.614 0.1094c-8.0378 0.0365-14.76 0.0365-14.98-0.0732-0.21918-0.073-0.32877-3.0324-0.25568-8.2204l0.10959-8.0745 4.7497-2e-4 4.7496 2e-4 -1.2057-1.7539c-0.62115-0.9498-4.2747-6.0647-8.111-11.399-3.7997-5.3341-11.911-16.66-18.012-25.21-6.1014-8.5494-11.545-16.076-12.093-16.733l-0.98639-1.2425-1.6807 2.3383c-0.91337 1.2424-4.6766 6.5035-8.3667 11.618-3.6901 5.1149-6.9053 9.5723-7.1975 9.8646-0.40192 0.4385-0.47501 0.0731-0.47501-2.3018v-2.8132h1.2788c1.3152 0 1.4615-0.2191 1.0595-1.7537-0.2192-0.8038-0.29233-0.8038-6.9418-0.8038h-6.7225v1.2787c0 1.1693 0.07304 1.2788 1.096 1.2788h1.096v9.3533 9.3896l-3.544 4.7861c-4.9323 6.6497-9.9742 13.701-9.9742 13.92 0 0.1096 2.2287 0.1827 4.9323 0.1827l4.9323-2e-4v25.941 25.94l-7.3802-0.0731-7.4167-0.1097 0.0365-1.0228c0-0.5481 0.03659-5.4075 0.07303-10.851l0.07315-9.8282 5.6995-0.1097 5.6631-0.1095-1.9364-1.4251c-1.0595-0.8036-6.686-5.2609-12.532-9.901-5.8092-4.64-13.153-10.413-16.258-12.824-10.997-8.4761-26.488-20.46-31.676-24.552-2.8863-2.2287-5.3707-4.092-5.5534-4.092-0.32883 0-3.1421 2.1556-19.729 14.943-2.4844 1.9365-6.3937 4.9325-8.6589 6.7225l-4.1651 3.1787v-5.1152-5.1148h1.2787 1.2788v-1.8267-1.8271h-8.0379-8.0378v1.6442c0 1.6443 0 1.6443 1.2787 1.6443h1.2788v10.011 10.011l-0.87686 0.5482c-0.47495 0.3288-4.2747 3.3246-8.4763 6.6859-8.3302 6.6495-10.34 8.1839-10.815 8.1839-0.14616 0-0.29226-23.748-0.29226-52.794l1e-5 -52.794 2.7767 2e-4c2.3748 0 2.7402-0.0729 2.5575-0.548-0.10966-0.3287-1.5345-4.713-3.1786-9.7915-1.6442-5.0786-3.9824-12.422-5.2612-16.332-1.2422-3.9094-4.2382-13.263-6.613-20.752-2.3748-7.4534-4.3843-13.591-4.5304-13.591-0.10961 0-0.91344 2.0826-1.7172 4.6401zm8.8416 66.605v4.2014l-3.1786 0.1099-3.2151 0.1093v-4.2016-4.2016l2.1191-0.1462c1.1326-0.0729 2.594-0.1095 3.1786-0.1095l1.096 0.0366v4.2017zm-7.8552 0.1826v4.2015h-3.1055-3.1055v-4.2015-4.2017h3.1055 3.1055v4.2017zm0 9.8646v4.2015h-3.1055-3.1055v-4.2015-4.2017h3.1055 3.1055v4.2017zm8.0378 0v4.2015h-3.2882-3.2882v-4.2015-4.2017h3.2882 3.2882v4.2017zm414.68 16.258v3.6536l-3.8363-1e-4c-4.2383 2e-4 -4.2747-0.0364-3.3612-2.3015 1.096-2.521 4.2016-5.0055 6.3936-5.0055 0.7673 0 0.80386 0.1096 0.80386 3.6535zm5.663-2.2651c1.4614 1.0229 3.4342 4.0554 3.4709 5.2611 0 0.5845-0.43857 0.6576-3.8363 0.6576l-3.8362-1e-4v-3.69-3.7267l1.3518 0.2193c0.76726 0.1461 2.0459 0.6942 2.8498 1.2788zm260.32 9.7554v5.6629h-4.2017-4.2015v-2.3018c0-1.2787-0.10955-3.8362-0.2192-5.6631l-0.2557-3.3611 4.4573-1e-4 4.4208 1e-4v5.6631zm10.961 0v5.6629h-4.3844-4.3843v-5.6629-5.6631l4.3843-1e-4 4.3844 1e-4v5.6631zm-276.94 1.8265c0 2.8131-0.10956 3.8362-0.43846 3.8362-0.2558 0-1.3154-0.402-2.3017-0.877-1.9731-0.9133-3.6536-2.5938-4.4574-4.4937-0.91345-2.2653-0.87702-2.3018 3.3612-2.3019h3.8363v3.8364zm9.1339-3.2884c0 0.9499-0.91347 2.8498-2.0461 4.1651-0.9499 1.1326-4.1285 2.9595-5.1515 2.9595-0.36536 0-0.4749-1.0231-0.4749-3.8362v-3.8364h3.8362c3.2151 0 3.8363 0.1097 3.8363 0.548zm256.85 14.615v5.663h-4.2017-4.2015v-5.663-5.6631h4.2015 4.2017v5.6631zm10.961 0v5.663h-4.3844-4.3843v-5.663-5.6631h4.3843 4.3844v5.6631zm-276.94 12.787v4.969l-3.7266-0.1096-3.7632-0.1094-0.10963-4.8595-0.10967-4.8227 3.8729-1e-4h3.8363v4.9323zm9.0607-0.1096-0.1096 4.8595h-3.6535-3.6536l-0.1096-4.8595-0.10964-4.8227h3.8728 3.8728l-0.1097 4.8227zm66.934 4.8596v4.9323h-3.8362-3.8361v-4.9323-4.9323h3.8361 3.8362v4.9323zm9.134 0v4.9323h-3.8362-3.8362v-4.9323-4.9323h3.8362 3.8362v4.9323zm-242.6 2.3747v4.7496h-3.4709-3.4709v-4.7496-4.7497h3.4709 3.4709v4.7497zm9.1339 0v4.7496h-3.617-3.617l-0.25583-1.3518c-0.10952-0.7307-0.10952-2.8862 0-4.7498l0.25583-3.3977h3.617 3.617v4.7497zm-94.262 4.2015v5.6632l-4.3842-2e-4 -4.3844 2e-4v-5.6632-5.6632h4.3844 4.3842v5.6632zm10.595-1e-4v5.6632l-4.3843-3e-4 -4.3843 4e-4v-5.6632-5.6632l4.3843-1e-4h4.3843v5.6632zm232 1e-4v4.9322h-3.7633l-3.7632 2e-4 0.07315-4.8593c0.07305-2.6306 0.10949-4.8591 0.10949-4.9322 0.03666-0.0367 1.6808-0.0734 3.6902-0.0734h3.6537v4.9325zm9.0243 0.0731 0.073 4.8591h-3.8362-3.7996v-4.9322-4.9689l3.763 0.1098 3.7267 0.1095 0.07315 4.8227zm257.32 3.2152v5.6631h-4.3844-4.3842v-5.6631-5.6629l4.3842-3e-4 4.3844 3e-4v5.6629zm10.595 0v5.6631h-4.3844-4.3843v-5.6631-5.6629l4.3843-3e-4 4.3844 3e-4v5.6629zm-200.95 1.8268v4.9324h-3.8362-3.8361v-4.9324-4.9322h3.8361 3.8362v4.9322zm9.134 0v4.9324h-3.8362-3.8362v-4.9324-4.9322h3.8362 3.8362v4.9322zm93.897 2.1921v5.663h-4.2015c-2.3018 0-4.3113 0.0368-4.4574 0.0733-0.14617 0.073-0.29224-2.4845-0.32877-5.6631l-0.073-5.7361h4.5303 4.5304v5.6629zm10.595-0.0364c0 4.3112-0.1096 5.663-0.4749 5.8092-0.2924 0.1096-2.2653 0.1096-4.3844 0l-3.9093-0.2193v-5.5899-5.6265h4.3844 4.3842v5.6265zm-347.09-0.5115v4.7494h-3.4709-3.4709v-4.7494-4.7498h3.4709 3.4709v4.7498zm9.1339 0v4.7494h-3.6536c-2.9594 0-3.7266-0.1095-3.8728-0.5478-0.14617-0.3289-0.10958-2.4481 0.0365-4.7498l0.25583-4.2016h3.617 3.617v4.7498zm-196.27 2.813-0.1095 3.9459-4.019-0.1461c-2.1922-0.0731-4.092-0.1828-4.1651-0.2559-0.07309-0.073 0.07308-0.8037 0.32882-1.6077 0.98648-2.9958 4.3112-5.8089 6.8686-5.8454l1.2057-3e-4 -0.1096 3.9095zm6.0649-2.5575c1.5345 1.096 3.2882 3.617 3.7266 5.2977l0.21927 1.0228h-4.2382-4.2381v-3.8727-3.9093l1.5345 0.2192c0.8403 0.1096 2.1921 0.6578 2.9959 1.2423zm249.39 3.2151v3.8363h-3.8362c-3.6171 0-3.8362-0.0364-3.8362-0.7309 0-0.7671 1.096-3.0688 1.8998-4.0188 0.9866-1.1327 2.1191-1.8999 3.471-2.4113 2.3383-0.8039 2.3017-0.877 2.3017 3.3247zm5.517-2.5209c1.7536 0.8771 3.142 2.8865 3.7632 5.3345l0.21905 1.0228h-4.0188l-4.019-1e-4v-3.5804c0-1.9731 0.1095-3.6901 0.2191-3.7999 0.2558-0.2556 2.5577 0.3291 3.8364 1.0231zm-158.97 5.444v5.663h-4.3842-4.3844v-5.663-5.663l4.3844-3e-4 4.3842 3e-4v5.663zm10.595-2e-4v5.6631h-4.3843l-4.3843 1e-4v-5.663-5.663l4.3843-4e-4 4.3843 3e-4v5.6629zm508.94 3.5077v5.4437h-4.3844-4.3843v-5.4073c0-2.996 0.07316-5.5168 0.14616-5.5898 0.073-0.0732 2.0459-0.1097 4.3843-0.0368l4.2382 0.1098v5.4804zm-10.669-0.1461-0.1096 5.4072-4.2746 0.1096-4.3112 0.1095v-5.5167-5.4804h4.3842 4.4209l-0.1097 5.3708zm-610.88 2.9226c0.1096 4.6765 0.1827 4.6034-2.6671 3.2516-2.046-0.9499-3.9823-2.9229-4.9688-5.1151-1.1326-2.4843-1.1692-2.4479 3.4344-2.3383l4.092 0.1098 0.1095 4.092zm9.9378-3.946c0 0.7674-0.94996 2.9231-1.8999 4.3114-1.1326 1.6805-3.4708 3.2516-5.3342 3.6169l-1.1691 0.2193v-4.2382-4.2383h4.2016c2.3017 0 4.2016 0.1463 4.2016 0.3289zm513.69 5.1518v5.4805l-4.6034-1e-4 -4.6401 1e-4 0.25577-1.9364c0.1096-1.023 0.21915-3.5076 0.21915-5.4804v-3.5441h4.3842 4.3843v5.4804zm10.595 0v5.4805l-4.3842-1e-4 -4.3844 1e-4v-5.4805-5.4804h4.3844 4.3842v5.4804zm-281.84-4.7496 3.069-3e-4v3.6539c0 4.0919-0.0365 4.0919-2.4844 3.1054-1.7537-0.7673-3.8362-2.8133-4.64-4.5669-0.69425-1.571-0.51165-2.7768 0.40179-2.4115 0.32886 0.1098 1.9729 0.2194 3.6536 0.2194zm11.984 1.5344c-0.65756 1.9364-2.7768 4.1652-4.7132 5.0788-2.667 1.2419-2.7401 1.1688-2.7401-2.9596v-3.6536l4.019-1e-4 3.9824 2e-4 -0.54807 1.5343zm-319.47 16.551v6.3938h-4.0189l-4.0189-1e-4v-6.3938-6.3937l4.0189 1e-4h4.0189v6.3937zm147.24 0.7307v5.6996l-4.4574-0.1096-4.4939-0.1095-0.10958-5.1152c-0.0365-2.7766 0-5.2977 0.07302-5.5533 0.14621-0.3654 1.3153-0.475 4.6036-0.475h4.3842v5.663zm10.595 0v5.6631h-4.3843-4.3843v-5.6631-5.663h4.3843 4.3843v5.663zm275.48 0.9501v5.0785h-4.9323-4.9322v-2.1189c0-1.206-0.10965-3.3981-0.21915-4.8959-0.2924-3.3248-0.65775-3.1056 5.6264-3.1421l4.4573-1e-4v5.0785zm11.692-0.0364v5.1149h-4.9323-4.9323v-5.1149-5.1153h4.9323 4.9323v5.1153zm48.958 0v5.1149h-4.9323-4.9323v-5.1149-5.1153h4.9323 4.9323v5.1153zm12.057 0v5.1149h-5.1151-5.115v-5.1149-5.1153h5.115 5.1151v5.1153zm-225.43 8.0376v4.7496l-4.7498 1e-4h-4.7496v-4.5668-4.5306l3.9459-0.1461c2.1556-0.0366 4.2747-0.1462 4.7496-0.1829 0.80382-0.073 0.80382-0.0364 0.80382 4.6767zm11.253 0.0731 0.10962 4.6765h-4.7863-4.7496v-4.5669-4.5305l2.4844-0.1461c1.3518-0.0732 3.4343-0.1096 4.6401-0.1096l2.1922 0.0364 0.10954 4.6402zm59.626-0.073v4.7496h-4.7495-4.7497v-4.5668-4.5306l4.4938-0.1461c2.4478-0.0365 4.5669-0.1461 4.7496-0.1827 0.14615-0.0365 0.25579 2.0461 0.25579 4.6766zm-11.326-2.3019c0 1.1692 0.10957 3.2154 0.25587 4.5672l0.21905 2.4843h-4.8228-4.7861v-4.5668-4.5671h4.5669 4.567v2.0824zm-320.27-1.0229c0.10952 0.1461 0.10952 2.4478-0.03656 5.1148l-0.21924 4.7863h-4.8227-4.8228l-0.25576-1.1325c-0.29226-1.5345-0.29226-8.5494 0.03658-8.8419 0.36534-0.3653 9.9012-0.2921 10.12 0.0733zm11.911 4.7862v5.1149h-4.9324-4.9323v-5.1149-5.1151h4.9323 4.9324v5.1151zm58.092-1e-4v5.1149h-5.115-5.115v-5.1149-5.1151h5.115 5.115v5.1151zm11.874 1e-4v4.9323l-5.0054 0.1094-5.042 0.1096v-5.1514-5.1516l5.042 0.1097 5.0054 0.1097v4.9323zm604.85 1.0962v4.3842h-3.2882-3.2882v-4.3842-4.3844h3.2882 3.2882v4.3844zm8.4032 0v4.4207l-3.3612-0.1096-3.3979-0.1095-0.1096-3.7998c-0.03647-2.1191 0-4.0555 0.07297-4.3112 0.14633-0.329 1.0962-0.475 3.5076-0.475h3.2881v4.3844zm37.997 0v4.3842h-3.2883-3.288v-4.3842-4.3844h3.288 3.2883v4.3844zm8.4033 0v4.4207l-3.3614-0.1096-3.3979-0.1095-0.10968-4.3112-0.1095-4.2748h3.5073 3.4711v4.3844zm-614.17 1.6438v5.6632l-4.3112-1e-4 -4.3477 1e-4 -0.25573-5.3342c-0.10967-2.9229-0.14617-5.4803 0-5.6632 0.10953-0.1827 2.1555-0.3287 4.5669-0.3287h4.3478v5.6629zm10.522 0.0733 0.10958 5.5899-4.4208-1e-4 -4.3843 1e-4v-5.6632-5.6996l4.3112 0.1098 4.2747 0.1096 0.10959 5.5535zm-299.89 0.1093v5.4805l-4.2016-1e-4 -4.2016 1e-4v-5.4805-5.4803h4.2016 4.2016v5.4803zm10.011-5.188c0.07308 0.1462 0.07308 2.5939-0.03658 5.4803l-0.21918 5.1882-3.9458-1e-4 -3.9824 1e-4v-5.4805-5.4803h3.9824c2.2287 0 4.092 0.1096 4.2016 0.2923zm47.35 0.1463v5.4072 5.1151l-4.2016-1e-4 -4.2017 1e-4v-5.4804-5.517l4.2017 0.1097c2.3018 0.0732 4.2016 0.2193 4.2016 0.3654zm10.23 5.0419v5.4804l-4.2017-1e-4 -4.2015 1e-4v-5.4804-5.4804h4.2015 4.2017v5.4804zm507.66-0.3653v4.9324h-4.8593-4.8592l-0.10963-4.8228c-0.07297-2.6669-0.03657-4.9322 0.073-5.0418 0.10973-0.1096 2.375-0.146 4.969-0.1096l4.7861 0.1096v4.9322zm11.874 0v5.1151l-4.9323-1e-4 -4.9323 1e-4v-5.1151-5.115h4.9323 4.9323v5.115zm48.958 0v5.1151l-4.9323-1e-4 -4.9323 1e-4v-5.1151-5.115h4.9323 4.9323v5.115zm12.057 0v5.1151l-5.1151-1e-4 -5.115 1e-4v-5.1151-5.115h5.115 5.1151v5.115zm-313.92 5.5532-0.10959 4.8594-4.6766-1e-4 -4.7131 1e-4 -0.18268-4.3479c-0.07309-2.3746-0.07309-4.567 0.0365-4.8226 0.14618-0.402 1.2422-0.5116 4.9689-0.5116h4.7862l-0.10958 4.8227zm11.326 0-0.10965 4.8594-4.64 0.0365-4.6766 0.0365v-4.8594-4.8957h4.7496 4.7862l-0.10959 4.8227zm386.18 16.807c-0.1095 19.802-0.1095 20.131-0.84034 20.241-0.4018 0.0732-4.8957 0.0367-9.9377-0.1096l-9.2435-0.2192v-20.058-20.022h10.047 10.047l-0.07312 20.168zm-309.02-15.236v4.567l-4.7498 2e-4h-4.7496v-4.5671-4.567h4.7496l4.7498-1e-4v4.567zm11.326 0v4.567h-4.7497-4.7496v-4.567-4.567h4.7496 4.7497v4.567zm48.3-0.1095c0.10965 2.4845 0.14618 4.5305 0.14618 4.5669-0.10973 0.1828-9.536 0.1828-9.4264 0 0.03656-0.146 0.07312-2.2286 0.07312-4.6399v-4.3844h4.5305 4.5304l0.14615 4.4574zm11.326 0.0731 0.10976 4.5304-4.4574 0.2558c-2.448 0.1461-4.6402 0.1461-4.8228 0-0.25577-0.146-0.4018-1.9729-0.4018-4.7862v-4.5305h4.713 4.7497l0.10954 4.5305zm-331.78-2.2653c0.0365 0.4018 0 3.3613-0.0365 8.7686v1.023l-4.8958-1e-4 -4.9324 1e-4 -0.10959-4.9689c-0.07308-2.7402-0.0365-5.0419 0.03657-5.1151 0.07302-0.073 2.3383-0.1461 5.0419-0.1461 3.617 0 4.8593 0.1096 4.8958 0.4385zm12.02 4.6766v5.115l-4.9324-1e-4 -4.9323 1e-4v-5.115-5.1151h4.9323 4.9324v5.1151zm58.092-1e-4v5.115l-5.115-2e-4 -5.115 2e-4v-5.115-5.1151h5.115 5.115v5.1151zm11.984-0.1094-0.10968 5.042-5.0054 0.1092-5.042 0.1095v-5.1513-5.1151h5.115l5.1516 1e-4 -0.10958 5.0056zm649.17-4.64 1.9729-1e-4v4.3845 4.3841h-3.2883-3.288v-4.311c0-2.375 0.10946-4.4575 0.25562-4.6036 0.18274-0.1463 0.76727-0.1827 1.3518-0.0733 0.58463 0.1098 1.9364 0.2194 2.996 0.2194zm10.376 4.2015v4.6038l-3.3614-0.1098-3.3979-0.1096-0.10968-3.9824c-0.03646-2.2288 0-4.2382 0.07324-4.494 0.14606-0.3289 1.096-0.475 3.5073-0.475h3.2884v4.567zm-54.804-0.0365v4.1651l-2.996 0.1462c-1.6806 0.1095-3.142 0.1095-3.2884 0.0365-0.18264-0.073-0.29214-2.0461-0.29214-4.3478v-4.165l3.2882-1e-4 3.2882 1e-4v4.165zm8.4032-0.0366c0 2.3019-0.07318 4.2382-0.14617 4.3114-0.073 0.073-1.571 0.1095-3.2883 0.0365l-3.142-0.1097v-4.2016-4.165l3.2883-1e-4 3.2881 1e-4v4.1284zm-649.61 15.418v18.45l-9.5723-0.0731-9.6089-0.1096-0.10965-17.902c-0.03653-9.8646 0-18.122 0.10965-18.378 0.1096-0.3287 2.4114-0.4383 9.682-0.4383l9.4992-1e-4v18.451zm255.02 0.5483v17.902l-8.8782-1e-4h-8.9147l-0.21916-4.6767c-0.32894-6.1014-0.32894-30.58 0-30.873 0.1096-0.1462 4.238-0.2557 9.1339-0.2557l8.8782 1e-4v17.903zm-462.54-11.874v5.2976h-4.2016-4.2016v-5.2976-5.2976h4.2016 4.2016v5.2976zm10.084-4.4938c-0.10966 0.4747-0.21925 2.8497-0.21925 5.2976v4.4938h-4.0189-4.0189v-5.2976-5.2976h4.2382c4.2381 0 4.2381 0 4.0189 0.8038zm47.35 3.4708c0.07315 2.375 0.03664 4.7498-0.03651 5.2978l-0.10953 1.0229h-4.1651-4.1651v-5.2976-5.2976h4.1651 4.2017l0.10952 4.2745zm10.157 1.0231v5.2976h-4.2017-4.2015v-5.2976-5.2976h4.2015 4.2017v5.2976zm548.04 13.153v16.624h-10.047-10.047v-16.039c0-8.8417 0.10943-16.295 0.21905-16.624 0.18275-0.5114 1.425-0.5845 10.047-0.5845l9.8282-1e-4v16.624zm-243.69 0.3653v16.624h-9.1339-9.134v-16.624-16.624l9.134-2e-4 9.1339 2e-4v16.624zm508.94 0.3656v16.989l-7.9284-0.0734-7.9646-0.1095-0.10977-16.916-0.073-16.88 8.0379-2e-4 8.0379 4e-4v16.989zm-842.59 0.0728-0.10965 16.003-8.659 0.1095-8.6955 0.0731v-16.076-16.076h8.7685l8.7686 1e-4 -0.073026 15.966zm295.94-10.047 0.10958 4.6767h-4.7862-4.7496v-4.7497-4.7862l4.6766 0.1096 4.64 0.1096 0.10959 4.64zm11.399-0.1096v4.7498l-9.4992 0.2191v-4.8593-4.8226h4.7496 4.7496v4.713z"/> </g> </svg>