<svg xmlns="http://www.w3.org/2000/svg" viewBox="0 0 980 980" fill="none" shape-rendering="auto"><metadata xmlns:rdf="http://www.w3.org/1999/02/22-rdf-syntax-ns#" xmlns:xsi="http://www.w3.org/2001/XMLSchema-instance" xmlns:dc="http://purl.org/dc/elements/1.1/" xmlns:dcterms="http://purl.org/dc/terms/"><rdf:RDF><rdf:Description><dc:title>Lorelei</dc:title><dc:creator>Lisa Wischofsky</dc:creator><dc:source xsi:type="dcterms:URI">https://www.figma.com/community/file/1198749693280469639</dc:source><dcterms:license xsi:type="dcterms:URI">https://creativecommons.org/publicdomain/zero/1.0/</dcterms:license><dc:rights>Remix of „Lorelei” (https://www.figma.com/community/file/1198749693280469639) by „Lisa Wischofsky”, licensed under „CC0 1.0” (https://creativecommons.org/publicdomain/zero/1.0/)</dc:rights></rdf:Description></rdf:RDF></metadata><mask id="viewboxMask"><rect width="980" height="980" rx="0" ry="0" x="0" y="0" fill="#fff" /></mask><g mask="url(#viewboxMask)"><rect fill="#cce5f0" width="980" height="980" x="0" y="0" /><g transform="translate(10 -60)"><path d="M458 198c21-1 43 5 61 15l17 11c8-5 17-7 27-7 15 0 30 5 43 14 11 9 20 22 25 35 5-1 10-3 15-2 8 1 17 5 24 10 8 6 15 14 18 23 2 8 2 16 0 23 5 0 10 0 14 3 7 3 10 9 12 16 3 12 1 23-1 35-2 8-4 16-9 23-5 6-12 11-20 12-3 0-6 0-9-2-5-2-9-1-13-5-6-5-7-13-6-21 1-16 5-33 15-45l-10-2c-4-3-7-7-9-11-7-11-13-24-17-37 0 10-2 19-8 27-3 4-8 7-13 6-3 0-5-4-6-6l-11-16c-7-7-14-14-23-20 4 11 5 24 2 35-1 4-4 9-8 11-3 1-5-2-7-4-8-6-14-14-21-20l-14-9c-18-10-36-16-56-20l-20-4c9 8 17 17 21 28 1 5 3 11 1 16-2 2-5 3-8 3l-16-3a214 214 0 0 0-105 1c9 2 17 4 25 8 7 4 15 9 19 16 1 2 3 6 1 8-6 5-15 7-23 9l-27 9c-15 7-30 17-44 27 11-2 22-3 33-2s23 3 30 12c1 4-3 6-5 8-17 12-37 23-52 38l-19 22 15-1c9 0 19 2 27 7 3 2 8 6 8 10-3 8-10 14-17 19-11 7-21 14-33 19 0 6 0 13-2 19-4 9-8 17-16 22-3 3-8 3-12 2-5-2-9-7-11-11-7-11-10-26-7-40 0-5 3-10 5-15l-4-6c-8-15-11-33-7-50 3-11 9-21 17-28-5-13-8-26-5-40 2-15 8-30 19-41 7-7 16-12 26-15-1-6-2-11-1-16 1-14 8-26 18-36 7-8 17-14 27-19 20-10 44-10 65-6 5-11 12-20 21-27 13-10 28-15 44-15ZM310 619c10 2 18 8 24 16 5 9 9 18 12 28 5 3 11 6 15 11s6 11 7 17c2 7 4 14 4 21-1 8-4 16-11 21-4 4-9 5-14 4-7-2-13-7-18-13-4 6-9 11-16 12-9 3-18-1-24-6-10-7-16-19-19-31l-3-28 2-22c2-7 6-13 11-18 4-5 9-8 14-11 5-2 11-2 16-1Z" fill="#000000"/><path d="M495 234c28 1 56 6 84 15a201 201 0 0 1 100 65c19 25 31 55 35 86a361 361 0 0 1 2 101l-5 34-4 20c-1 2-1 2-3 2-2-4-2-8-2-12-1-15 1-29 2-44 1-24 3-48 1-72l-6-45c-7-28-20-54-40-75-18-18-40-33-63-43-22-9-44-15-67-19-18-3-36-4-54-4a277 277 0 0 0-128 29c-13 9-25 20-35 32a276 276 0 0 0-55 139c-1 24 0 47 8 70l7 15 12 1 1 3c-3 2-7 2-11 3-10 2-20 6-29 12-7 5-14 11-18 19-5 10-3 22-1 33 5 19 17 37 33 49 11 9 25 14 39 16 10 2 20 0 30-1 5 4 8 12 11 17l18 27a136 136 0 0 0 66 50c22 9 45 14 68 19l41 8 17 5v4h-12a535 535 0 0 1-67-8 255 255 0 0 1-84-33c-11-7-21-16-29-27a214 214 0 0 1-16 123c-15 27-40 48-70 57-3 1-7 2-10 1-2 0-2-1-2-3 1-3 4-5 6-6 12-8 26-14 38-23 13-11 24-23 31-38 6-15 10-32 12-49 2-13 3-26 2-40l-4-38-18-36-19 4a88 88 0 0 1-75-38 93 93 0 0 1-20-58c0-9 3-18 8-25s12-13 19-17c5-4 12-6 18-8l-9-24c-5-22-5-45-2-67a292 292 0 0 1 63-149c9-10 18-19 29-26 7-4 14-5 20-9 43-19 90-25 137-22Z" fill="#000"/><path d="M475 243a276 276 0 0 1 121 23c23 10 45 25 63 43 20 21 33 47 40 75l6 45c2 24 0 48-1 72-1 15-3 29-2 44 0 4 0 8 2 12l-1 20c-2 5-2 10-2 16-2 24-2 49-6 74-1 12-3 25-8 36-3 9-8 17-15 24-12 13-27 24-43 33-19 11-39 16-58 24-5 2-10 4-13 8 8 1 15 0 23-2-5 12-6 24-6 36 0 5-1 11 1 16 3 5 8 9 13 12l35 13c22 8 43 18 65 27 2 4 5 7 6 12 6 11 7 23 3 35-5 13-15 24-27 31-16 11-36 19-55 24a494 494 0 0 1-235-7c-20-7-40-14-58-24-14-8-29-18-40-31-6-8-11-19-12-29a122 122 0 0 0 86-107c4-24 4-49 0-73 8 11 18 20 29 27l27 14a331 331 0 0 0 124 27h12v-4l-17-5-41-8c-23-5-46-10-68-19-13-6-27-13-39-21-10-9-19-18-27-29l-18-27c-3-5-6-13-11-17-10 1-20 3-30 1-14-2-28-7-39-16a94 94 0 0 1-33-49c-2-11-4-23 1-33 4-8 11-14 18-19 9-6 19-10 29-12 4-1 8-1 11-3l-1-3-12-1-7-15c-8-23-9-46-7-70a276 276 0 0 1 54-139c10-12 22-23 35-32a277 277 0 0 1 128-30Z" fill="#ffffff"/><path d="M260 571c4 0 7 0 11 2 5 1 11 4 14 8 2 3 2 7 0 10-5 6-12 10-16 16 6 4 14 6 21 9 4 1 8 3 11 6l1 3-8-2-24-7c-4-1-8-3-9-7-1-3 1-7 3-10l15-13c-4-7-15-8-19-15ZM703 577l2 3 2 16a483 483 0 0 1-2 89c-2 11-5 23-10 33a198 198 0 0 1-106 71c-1 14-3 31-2 47l5 5c8 6 18 9 27 12a451 451 0 0 1 68 28c7 4 13 9 18 15-5 1-10-1-16-2-22-9-43-19-65-27l-35-13c-5-3-10-7-13-12-2-5-1-11-1-16 0-12 1-24 6-36-8 2-15 3-23 2 3-4 8-6 13-8 19-8 39-13 58-24 16-9 31-20 43-33 7-7 12-15 15-24 5-11 7-24 8-36 4-25 4-50 6-74 0-6 0-11 2-16Z" fill="#000"/><path d="M679 466c8 3 13 11 15 19 1 5 2 11 1 17 0 3-1 7-4 9-4 2-8 1-10-3-3-4-2-10-3-15s-4-11-9-13c-8-2-13 1-19 5 4 8 4 16 3 24 0 8-1 15-4 23l-4 9c-1 4-4 7-8 8s-8-2-10-5c-3-4-5-9-5-14-2 4-3 9-6 12-3-2-3-7-4-10 0-13 6-27 13-38s17-22 29-27c8-4 17-5 25-1ZM482 474c18 8 33 24 39 44 2 6 4 13 2 19-1 2-2 3-4 2-3-3-5-8-7-12-8-14-18-28-33-36-10-6-22-8-34-5l5 10c3 6 3 12 3 18 0 8-1 15-3 23-2 6-6 12-10 17-3 3-6 5-10 5-5 0-9-2-12-6-5-8-6-18-6-27 0-7 2-14 4-21l-6 8c-3 4-10 4-13 0-3-3-3-8-1-12 8-12 19-22 32-28 17-7 37-7 54 1Z" fill="#000000"/><path d="M480 404c10 1 19 0 29 3 9 3 18 10 22 19 4 6 2 16-6 19-6 4-15 3-23 2-20-3-40-9-60-14l-20-4-10-2-4-4c2-4 6-6 10-7l20-7 18-3 24-2ZM656 410c8 1 15 4 22 7l9 4c2 2 3 6 1 8l-10 4c-17 4-33 11-51 12l-9 1c-3 0-6-2-8-4-3-2-4-5-4-9 0-7 2-15 8-20 4-3 11-4 16-5 8 0 17 0 26 2Z" fill="#000000"/><path d="M676 575c3-2 7 0 7 4 0 3-3 4-6 4-3-1-4-6-1-8ZM366 583c2-1 5 0 7 1 2 3 2 7 0 10-3 2-6 2-9 0-3-3-2-9 2-11ZM624 584c1-1 4-1 5 1 0 2 0 4-2 4-3 1-5-3-3-5ZM649 584c5-2 10 3 8 7s-7 6-10 3-2-8 2-10ZM475 586c2-1 6 1 5 3 1 2-1 4-4 4-3-1-3-5-1-7ZM691 587c3-2 7 0 7 3 1 3-3 5-6 4-2-1-2-5-1-7ZM412 587c5 0 8 6 6 10-1 2-4 3-6 4-2-1-5-2-6-4-2-4 2-10 6-10ZM339 595c4-1 7 1 7 5-1 4-5 5-8 3-2-2-2-6 1-8ZM670 600c4-2 8 1 8 5s-5 7-8 4c-3-2-3-7 0-9ZM450 604c3 0 3 2 5 4l-2 3c-3 3-7 1-8-2 0-3 2-6 5-5ZM384 617c4 0 7 2 8 6 0 4-3 8-7 8-3 0-6-2-7-5-1-4 2-9 6-9Z" fill="#000000"/><path d="M597 505h1l3 15 3 26 8 13 6 12c2 5 2 10 5 14 3 5 5 10 5 16 0 9-6 17-14 20l-19 8c-5 3-9 5-15 5-5 0-11 0-13-5-2-2 0-4 2-5l12-3 16-5 13-5c6-2 9-8 7-14l-5-8-7-17-7-19c-4-8-6-17-5-26 0-7 1-15 4-22Z" fill="#000000"/><path d="M632 656c-5 5-12 9-18 13-11 8-23 15-36 20-3 1-6 3-10 3l-17-2h-23l-23-2c-6 0-11-4-15-9l-13 1c-3-1-6-4-4-7s7-5 10-7c5-1 11-2 16 1 3 2 4 6 6 8l5 1c15 1 31 1 46 4 5 1 10 4 15 2 5-1 10-4 14-6 13-6 25-13 38-18 3-1 6-3 9-2Z" fill="#000000"/><path d="M484 200c21 4 41 14 57 28 8-7 18-10 29-10a75 75 0 0 1 63 53c5-5 13-5 19-4 18 3 32 17 37 34 1 7 1 14-1 20-3 6-8 11-14 14-5 1-11 0-16-3l-7-9c-7-12-12-24-16-37 0 6 0 12-3 18-2 6-5 11-10 14-3 2-7 2-10 0l-5-6-10-15c-7-7-14-14-23-20 3 11 5 22 2 33-1 4-2 8-5 11l-6 2-21-20c-11-10-24-16-37-22-15-6-31-11-47-13l-10-2c9 8 17 16 20 27 2 5 4 12 2 17-2 2-5 3-8 3l-15-3a218 218 0 0 0-106 1c11 2 20 5 29 11 6 3 12 7 15 13 1 2 3 6 1 8-6 5-15 7-23 9l-27 9c-15 7-30 17-44 27 11-2 22-3 33-2s23 3 30 12c1 4-3 7-5 9-16 10-34 20-48 33-9 8-16 17-23 26 11-2 22-2 33 2 6 2 12 5 15 10 2 2 2 4 1 7-5 10-15 16-25 21-10 7-21 13-33 17-5 2-11 3-16 3-4 0-8-3-10-6-7-5-10-14-8-22 1-5 4-9 7-13-11-8-18-21-18-35 0-9 2-18 7-25 5-9 12-15 20-21-4-5-6-10-8-17-3-10-4-22-1-32 3-13 12-24 23-30 10-7 21-11 33-13v-8c-3-6-3-13-2-20 1-12 8-23 18-31 13-10 29-14 45-15 14-1 29 0 42 4l7-16c6-11 16-20 28-24 14-5 30-5 45-2Z" fill="#000000"/></g><g transform="translate(10 -60)"></g></g></svg>