<svg xmlns="http://www.w3.org/2000/svg" viewBox="0 0 980 980" fill="none" shape-rendering="auto"><metadata xmlns:rdf="http://www.w3.org/1999/02/22-rdf-syntax-ns#" xmlns:xsi="http://www.w3.org/2001/XMLSchema-instance" xmlns:dc="http://purl.org/dc/elements/1.1/" xmlns:dcterms="http://purl.org/dc/terms/"><rdf:RDF><rdf:Description><dc:title>Lorelei</dc:title><dc:creator>Lisa Wischofsky</dc:creator><dc:source xsi:type="dcterms:URI">https://www.figma.com/community/file/1198749693280469639</dc:source><dcterms:license xsi:type="dcterms:URI">https://creativecommons.org/publicdomain/zero/1.0/</dcterms:license><dc:rights>Remix of „Lorelei” (https://www.figma.com/community/file/1198749693280469639) by „Lisa Wischofsky”, licensed under „CC0 1.0” (https://creativecommons.org/publicdomain/zero/1.0/)</dc:rights></rdf:Description></rdf:RDF></metadata><mask id="viewboxMask"><rect width="980" height="980" rx="0" ry="0" x="0" y="0" fill="#fff" /></mask><g mask="url(#viewboxMask)"><rect fill="#d4f1c7" width="980" height="980" x="0" y="0" /><g transform="translate(10 -60)"><path d="m614 167 8 5c1 1 2 2 1 4l-6 3-32 14c-14 7-28 16-40 26l18-1c32 0 63 10 90 26 22 14 41 32 53 55 11 20 16 43 14 65l1 5a163 163 0 0 1 17 63c0 13-3 27-9 39-4 9-9 18-16 25-8 6-16 13-26 14-3 0-8-1-9-4-2-2-1-6-1-9l11-56c-8 9-17 17-28 23-4 3-8 3-12 3l-1-5c1-11 0-22-1-33-5-28-14-57-32-79l3 30c0 20-4 41-12 59-6 15-15 29-27 39-3 2-6 4-10 4-2 0-4-1-3-3 3-16 4-32 4-49-10 21-28 36-47 46-6 3-12 6-19 2v-9a293 293 0 0 0 8-79c-8 15-19 29-31 41-13 12-27 23-42 32-9 5-20 11-31 11-5 0-9-1-13-3v-1l3-16c2-12 3-25 2-37l-5 20c-4 10-9 19-16 27l-8 5c-2 0-3 0-3-2l6-12c7-14 11-28 12-44a327 327 0 0 1-39 62l-5 6-1 18-1 17c14 18 24 39 31 61a203 203 0 0 1-12 121c5 16 5 34 0 50-8 23-23 43-41 59-14 12-30 23-47 29-10 4-22 7-33 5-4 0-6-2-9-4 2-3 4-6 4-10 2-6 1-13 0-19-2-13-7-25-14-36l-18-27c-5-9-10-18-12-28l-1-22-4 15c-3 12-3 25-1 37 1 7 4 14 8 20l8 10c-3 1-6-1-9-3-7-4-12-10-15-17a91 91 0 0 1 13-92c8-11 19-19 31-24l17-4c10-3 20-4 31-3-24-28-43-61-55-96a247 247 0 0 1 14-191 226 226 0 0 1 124-106c22-9 45-16 68-19 15-2 32-3 46 1a155 155 0 0 1 115-57c12-1 25 0 36 3ZM664 622c7-1 15 2 21 6 7 5 12 12 17 19l10 18c9 16 15 34 16 53 0 18-4 37-14 52-8 9-16 18-27 23l11 13c2 1 4 4 3 6 0 2-3 2-5 3-13 3-26-1-37-7-14-6-26-17-33-31l10 24c2 4 5 7 4 12-2 0-4 0-6-2-7-4-12-11-16-17-6-10-10-21-12-32-3-16-1-33 3-48l4-17c6-21 15-41 28-58 5-8 13-16 23-17Z" fill="#000000"/><path d="M495 234c28 1 56 6 84 15a201 201 0 0 1 100 65c19 25 31 55 35 86a361 361 0 0 1 2 101l-5 34-4 20c-1 2-1 2-3 2-2-4-2-8-2-12-1-15 1-29 2-44 1-24 3-48 1-72l-6-45c-7-28-20-54-40-75-18-18-40-33-63-43-22-9-44-15-67-19-18-3-36-4-54-4a277 277 0 0 0-128 29c-13 9-25 20-35 32a276 276 0 0 0-55 139c-1 24 0 47 8 70l7 15 12 1 1 3c-3 2-7 2-11 3-10 2-20 6-29 12-7 5-14 11-18 19-5 10-3 22-1 33 5 19 17 37 33 49 11 9 25 14 39 16 10 2 20 0 30-1 5 4 8 12 11 17l18 27a136 136 0 0 0 66 50c22 9 45 14 68 19l41 8 17 5v4h-12a535 535 0 0 1-67-8 255 255 0 0 1-84-33c-11-7-21-16-29-27a214 214 0 0 1-16 123c-15 27-40 48-70 57-3 1-7 2-10 1-2 0-2-1-2-3 1-3 4-5 6-6 12-8 26-14 38-23 13-11 24-23 31-38 6-15 10-32 12-49 2-13 3-26 2-40l-4-38-18-36-19 4a88 88 0 0 1-75-38 93 93 0 0 1-20-58c0-9 3-18 8-25s12-13 19-17c5-4 12-6 18-8l-9-24c-5-22-5-45-2-67a292 292 0 0 1 63-149c9-10 18-19 29-26 7-4 14-5 20-9 43-19 90-25 137-22Z" fill="#000"/><path d="M475 243a276 276 0 0 1 121 23c23 10 45 25 63 43 20 21 33 47 40 75l6 45c2 24 0 48-1 72-1 15-3 29-2 44 0 4 0 8 2 12l-1 20c-2 5-2 10-2 16-2 24-2 49-6 74-1 12-3 25-8 36-3 9-8 17-15 24-12 13-27 24-43 33-19 11-39 16-58 24-5 2-10 4-13 8 8 1 15 0 23-2-5 12-6 24-6 36 0 5-1 11 1 16 3 5 8 9 13 12l35 13c22 8 43 18 65 27 2 4 5 7 6 12 6 11 7 23 3 35-5 13-15 24-27 31-16 11-36 19-55 24a494 494 0 0 1-235-7c-20-7-40-14-58-24-14-8-29-18-40-31-6-8-11-19-12-29a122 122 0 0 0 86-107c4-24 4-49 0-73 8 11 18 20 29 27l27 14a331 331 0 0 0 124 27h12v-4l-17-5-41-8c-23-5-46-10-68-19-13-6-27-13-39-21-10-9-19-18-27-29l-18-27c-3-5-6-13-11-17-10 1-20 3-30 1-14-2-28-7-39-16a94 94 0 0 1-33-49c-2-11-4-23 1-33 4-8 11-14 18-19 9-6 19-10 29-12 4-1 8-1 11-3l-1-3-12-1-7-15c-8-23-9-46-7-70a276 276 0 0 1 54-139c10-12 22-23 35-32a277 277 0 0 1 128-30Z" fill="#ffffff"/><path d="M260 571c4 0 7 0 11 2 5 1 11 4 14 8 2 3 2 7 0 10-5 6-12 10-16 16 6 4 14 6 21 9 4 1 8 3 11 6l1 3-8-2-24-7c-4-1-8-3-9-7-1-3 1-7 3-10l15-13c-4-7-15-8-19-15ZM703 577l2 3 2 16a483 483 0 0 1-2 89c-2 11-5 23-10 33a198 198 0 0 1-106 71c-1 14-3 31-2 47l5 5c8 6 18 9 27 12a451 451 0 0 1 68 28c7 4 13 9 18 15-5 1-10-1-16-2-22-9-43-19-65-27l-35-13c-5-3-10-7-13-12-2-5-1-11-1-16 0-12 1-24 6-36-8 2-15 3-23 2 3-4 8-6 13-8 19-8 39-13 58-24 16-9 31-20 43-33 7-7 12-15 15-24 5-11 7-24 8-36 4-25 4-50 6-74 0-6 0-11 2-16Z" fill="#000"/><path d="M679 466c8 3 13 11 15 19 1 5 2 11 1 17 0 3-1 7-4 9-4 2-8 1-10-3-3-4-2-10-3-15s-4-11-9-13c-8-2-13 1-19 5 4 8 4 16 3 24 0 8-1 15-4 23l-4 9c-1 4-4 7-8 8s-8-2-10-5c-3-4-5-9-5-14-2 4-3 9-6 12-3-2-3-7-4-10 0-13 6-27 13-38s17-22 29-27c8-4 17-5 25-1ZM482 474c18 8 33 24 39 44 2 6 4 13 2 19-1 2-2 3-4 2-3-3-5-8-7-12-8-14-18-28-33-36-10-6-22-8-34-5l5 10c3 6 3 12 3 18 0 8-1 15-3 23-2 6-6 12-10 17-3 3-6 5-10 5-5 0-9-2-12-6-5-8-6-18-6-27 0-7 2-14 4-21l-6 8c-3 4-10 4-13 0-3-3-3-8-1-12 8-12 19-22 32-28 17-7 37-7 54 1Z" fill="#000000"/><path d="M503 394c7 0 14 2 19 6 4 2 7 4 8 8 1 2 0 5-2 6-5 1-10-2-14-3l-9-1c-13-1-26 1-39 4a169 169 0 0 0-60 31c-4 2-9 5-14 4-3 0-3-4-2-7 1-6 7-11 12-16 10-9 23-15 35-20 20-9 44-14 66-12ZM659 396c7-2 14-1 20 3 4 3 8 6 9 11 1 3 1 6-2 7s-7 1-10-1c-5-3-9-6-15-6-5 0-10 1-14 3-8 4-16 11-20 19l-6 9h-3v-6c2-8 7-16 13-22 7-8 17-15 28-17Z" fill="#000000"/><path d="M216 569c5 0 10-1 14 2 3 2 5 5 4 9-2 4-6 7-11 7h-16c-5-1-9-3-11-7-1-4 2-7 5-9 5-2 10-1 15-2ZM229 592c3 1 7 3 7 7 0 3-1 6-4 7-5 4-11 4-17 6-5 1-10 2-14-1s-3-9 0-12c4-4 8-4 13-5s10-3 15-2ZM301 644h8c3 1 6 4 6 8 0 5-4 9-9 10-5 2-9-2-11-6-1-5 1-11 6-12Z" fill="#000000"/><path d="M603 613v1c-4 8-11 15-20 18-3 1-7 1-9-1v-4c7-5 16-9 24-12l5-2Z" fill="#000000"/><path d="M621 668c2-1 4 1 5 3 2 5 1 11 1 16-1 4-2 8-5 11-1 2-3 2-5 3l-2-7 4-20-30 6c-4 0-9 2-13 4-11 6-20 16-29 23-2 2-5 5-9 6-3 0-5-2-4-5 0-4 4-8 6-11 9-9 20-19 32-23 10-3 18 1 27-2l22-4Z" fill="#000000"/><path d="M593 164c7 0 15 1 22 4l9 5c-1 4-4 4-6 6l-33 14c-14 7-28 16-40 26a169 169 0 0 1 139 50 123 123 0 0 1 29 130c-9 26-28 50-52 65-4 3-8 3-13 3l-1-2c2-15 0-29-3-44-4-26-14-50-30-71 4 21 4 43-1 64-4 20-13 42-28 57-4 4-9 9-14 10-2 0-6 1-6-1l2-16c2-11 2-22 2-34a99 99 0 0 1-57 50l-9-2c-1-4 0-8 1-13a309 309 0 0 0 7-75c-10 20-26 37-43 52-11 9-23 18-36 24-8 4-16 8-25 8-5 0-9-1-13-3a168 168 0 0 0 5-55c-1 7-3 15-6 22-3 9-8 17-14 25l-8 6c-2 0-3 1-4-1 1-5 4-9 6-13 7-14 11-29 12-44a273 273 0 0 1-42 67c-2 1-2 3-2 4l-3 42v46c0 4 1 9-1 12-2 2-5 2-8 3-9 2-17-1-25-4s-15-8-21-15c-6-6-11-13-15-21l-7-6a138 138 0 0 1-51-111c0-27 8-53 19-77a254 254 0 0 1 181-131c17-2 36-3 53 1l16-17a151 151 0 0 1 114-40Z" fill="#000000"/></g><g transform="translate(10 -60)"></g></g></svg>